<?xml version="1.0" encoding="utf-8" standalone="no"?>
<!DOCTYPE svg PUBLIC "-//W3C//DTD SVG 1.1//EN"
  "http://www.w3.org/Graphics/SVG/1.1/DTD/svg11.dtd">
<svg xmlns:xlink="http://www.w3.org/1999/xlink" width="576pt" height="489.6pt" viewBox="0 0 576 489.6" xmlns="http://www.w3.org/2000/svg" version="1.1">
 <metadata>
  <rdf:RDF xmlns:dc="http://purl.org/dc/elements/1.1/" xmlns:cc="http://creativecommons.org/ns#" xmlns:rdf="http://www.w3.org/1999/02/22-rdf-syntax-ns#">
   <cc:Work>
    <dc:type rdf:resource="http://purl.org/dc/dcmitype/StillImage"/>
    <dc:date>2026-09-28T10:18:05.868250</dc:date>
    <dc:format>image/svg+xml</dc:format>
    <dc:creator>
     <cc:Agent>
      <dc:title>Matplotlib v3.10.8, https://matplotlib.org/</dc:title>
     </cc:Agent>
    </dc:creator>
   </cc:Work>
  </rdf:RDF>
 </metadata>
 <defs>
  <style type="text/css">*{stroke-linejoin: round; stroke-linecap: butt}</style>
 </defs>
 <g id="figure_1">
  <g id="patch_1">
   <path d="M 0 489.6 
L 576 489.6 
L 576 0 
L 0 0 
z
" style="fill: #ffffff"/>
  </g>
  <g id="axes_1">
   <g id="patch_2">
    <path d="M 56.648 339.712 
L 565.2 339.712 
L 565.2 56.856 
L 56.648 56.856 
z
" style="fill: #ffffff"/>
   </g>
   <g id="matplotlib.axis_1">
    <g id="xtick_1">
     <g id="line2d_1">
      <path d="M 127.050305 339.712 
L 127.050305 56.856 
" clip-path="url(#pffa5ef1c37)" style="fill: none; stroke: #b0b0b0; stroke-opacity: 0.22; stroke-width: 0.8; stroke-linecap: square"/>
     </g>
     <g id="line2d_2">
      <defs>
       <path id="mefd4ac3f7d" d="M 0 0 
L 0 3.5 
" style="stroke: #000000; stroke-width: 0.8"/>
      </defs>
      <g>
       <use xlink:href="#mefd4ac3f7d" x="127.050305" y="339.712" style="stroke: #000000; stroke-width: 0.8"/>
      </g>
     </g>
     <g id="text_1">
      <text style="font-size: 12px; font-family: 'DejaVu Sans', 'Bitstream Vera Sans', 'Computer Modern Sans Serif', 'Lucida Grande', 'Verdana', 'Geneva', 'Lucid', 'Arial', 'Helvetica', 'Avant Garde', sans-serif; text-anchor: middle" x="127.050305" y="355.830125" transform="rotate(-0 127.050305 355.830125)">−8</text>
     </g>
    </g>
    <g id="xtick_2">
     <g id="line2d_3">
      <path d="M 224.284051 339.712 
L 224.284051 56.856 
" clip-path="url(#pffa5ef1c37)" style="fill: none; stroke: #b0b0b0; stroke-opacity: 0.22; stroke-width: 0.8; stroke-linecap: square"/>
     </g>
     <g id="line2d_4">
      <g>
       <use xlink:href="#mefd4ac3f7d" x="224.284051" y="339.712" style="stroke: #000000; stroke-width: 0.8"/>
      </g>
     </g>
     <g id="text_2">
      <text style="font-size: 12px; font-family: 'DejaVu Sans', 'Bitstream Vera Sans', 'Computer Modern Sans Serif', 'Lucida Grande', 'Verdana', 'Geneva', 'Lucid', 'Arial', 'Helvetica', 'Avant Garde', sans-serif; text-anchor: middle" x="224.284051" y="355.830125" transform="rotate(-0 224.284051 355.830125)">−6</text>
     </g>
    </g>
    <g id="xtick_3">
     <g id="line2d_5">
      <path d="M 321.517798 339.712 
L 321.517798 56.856 
" clip-path="url(#pffa5ef1c37)" style="fill: none; stroke: #b0b0b0; stroke-opacity: 0.22; stroke-width: 0.8; stroke-linecap: square"/>
     </g>
     <g id="line2d_6">
      <g>
       <use xlink:href="#mefd4ac3f7d" x="321.517798" y="339.712" style="stroke: #000000; stroke-width: 0.8"/>
      </g>
     </g>
     <g id="text_3">
      <text style="font-size: 12px; font-family: 'DejaVu Sans', 'Bitstream Vera Sans', 'Computer Modern Sans Serif', 'Lucida Grande', 'Verdana', 'Geneva', 'Lucid', 'Arial', 'Helvetica', 'Avant Garde', sans-serif; text-anchor: middle" x="321.517798" y="355.830125" transform="rotate(-0 321.517798 355.830125)">−4</text>
     </g>
    </g>
    <g id="xtick_4">
     <g id="line2d_7">
      <path d="M 418.751544 339.712 
L 418.751544 56.856 
" clip-path="url(#pffa5ef1c37)" style="fill: none; stroke: #b0b0b0; stroke-opacity: 0.22; stroke-width: 0.8; stroke-linecap: square"/>
     </g>
     <g id="line2d_8">
      <g>
       <use xlink:href="#mefd4ac3f7d" x="418.751544" y="339.712" style="stroke: #000000; stroke-width: 0.8"/>
      </g>
     </g>
     <g id="text_4">
      <text style="font-size: 12px; font-family: 'DejaVu Sans', 'Bitstream Vera Sans', 'Computer Modern Sans Serif', 'Lucida Grande', 'Verdana', 'Geneva', 'Lucid', 'Arial', 'Helvetica', 'Avant Garde', sans-serif; text-anchor: middle" x="418.751544" y="355.830125" transform="rotate(-0 418.751544 355.830125)">−2</text>
     </g>
    </g>
    <g id="xtick_5">
     <g id="line2d_9">
      <path d="M 515.98529 339.712 
L 515.98529 56.856 
" clip-path="url(#pffa5ef1c37)" style="fill: none; stroke: #b0b0b0; stroke-opacity: 0.22; stroke-width: 0.8; stroke-linecap: square"/>
     </g>
     <g id="line2d_10">
      <g>
       <use xlink:href="#mefd4ac3f7d" x="515.98529" y="339.712" style="stroke: #000000; stroke-width: 0.8"/>
      </g>
     </g>
     <g id="text_5">
      <text style="font-size: 12px; font-family: 'DejaVu Sans', 'Bitstream Vera Sans', 'Computer Modern Sans Serif', 'Lucida Grande', 'Verdana', 'Geneva', 'Lucid', 'Arial', 'Helvetica', 'Avant Garde', sans-serif; text-anchor: middle" x="515.98529" y="355.830125" transform="rotate(-0 515.98529 355.830125)">0</text>
     </g>
    </g>
    <g id="text_6">
     <!-- $\operatorname{Re}(\lambda)$ (s$^{-1}$) -->
     <g transform="translate(273.264 373.974187)">
      <text>
       <tspan x="0" y="-0.498438" style="font-size: 14px; font-family: 'DejaVu Sans'">R</tspan>
       <tspan x="9.727539" y="-0.498438" style="font-size: 14px; font-family: 'DejaVu Sans'">e</tspan>
       <tspan x="18.34082" y="-0.498438" style="font-size: 14px; font-family: 'DejaVu Sans'">(</tspan>
       <tspan x="32.087891" y="-0.498438" style="font-size: 14px; font-family: 'DejaVu Sans'">)</tspan>
       <tspan x="37.549805" y="-0.498438" style="font-size: 14px; font-family: 'DejaVu Sans'"> </tspan>
       <tspan x="42" y="-0.498438" style="font-size: 14px; font-family: 'DejaVu Sans'">(</tspan>
       <tspan x="47.461914" y="-0.498438" style="font-size: 14px; font-family: 'DejaVu Sans'">s</tspan>
       <tspan x="69.719043" y="-0.498438" style="font-size: 14px; font-family: 'DejaVu Sans'">)</tspan>
       <tspan x="23.802734" y="-0.498438" style="font-style: oblique; font-size: 14px; font-family: 'DejaVu Sans'">λ</tspan>
       <tspan x="54.889844" y="-5.857813" style="font-size: 9.8px; font-family: 'DejaVu Sans'">−</tspan>
       <tspan x="63.101172" y="-5.857813" style="font-size: 9.8px; font-family: 'DejaVu Sans'">1</tspan>
      </text>
     </g>
    </g>
   </g>
   <g id="matplotlib.axis_2">
    <g id="ytick_1">
     <g id="line2d_11">
      <path d="M 56.648 330.770242 
L 565.2 330.770242 
" clip-path="url(#pffa5ef1c37)" style="fill: none; stroke: #b0b0b0; stroke-opacity: 0.22; stroke-width: 0.8; stroke-linecap: square"/>
     </g>
     <g id="line2d_12">
      <defs>
       <path id="med8e6dce1a" d="M 0 0 
L -3.5 0 
" style="stroke: #000000; stroke-width: 0.8"/>
      </defs>
      <g>
       <use xlink:href="#med8e6dce1a" x="56.648" y="330.770242" style="stroke: #000000; stroke-width: 0.8"/>
      </g>
     </g>
     <g id="text_7">
      <text style="font-size: 12px; font-family: 'DejaVu Sans', 'Bitstream Vera Sans', 'Computer Modern Sans Serif', 'Lucida Grande', 'Verdana', 'Geneva', 'Lucid', 'Arial', 'Helvetica', 'Avant Garde', sans-serif; text-anchor: end" x="49.648" y="335.329305" transform="rotate(-0 49.648 335.329305)">−3</text>
     </g>
    </g>
    <g id="ytick_2">
     <g id="line2d_13">
      <path d="M 56.648 286.608162 
L 565.2 286.608162 
" clip-path="url(#pffa5ef1c37)" style="fill: none; stroke: #b0b0b0; stroke-opacity: 0.22; stroke-width: 0.8; stroke-linecap: square"/>
     </g>
     <g id="line2d_14">
      <g>
       <use xlink:href="#med8e6dce1a" x="56.648" y="286.608162" style="stroke: #000000; stroke-width: 0.8"/>
      </g>
     </g>
     <g id="text_8">
      <text style="font-size: 12px; font-family: 'DejaVu Sans', 'Bitstream Vera Sans', 'Computer Modern Sans Serif', 'Lucida Grande', 'Verdana', 'Geneva', 'Lucid', 'Arial', 'Helvetica', 'Avant Garde', sans-serif; text-anchor: end" x="49.648" y="291.167224" transform="rotate(-0 49.648 291.167224)">−2</text>
     </g>
    </g>
    <g id="ytick_3">
     <g id="line2d_15">
      <path d="M 56.648 242.446081 
L 565.2 242.446081 
" clip-path="url(#pffa5ef1c37)" style="fill: none; stroke: #b0b0b0; stroke-opacity: 0.22; stroke-width: 0.8; stroke-linecap: square"/>
     </g>
     <g id="line2d_16">
      <g>
       <use xlink:href="#med8e6dce1a" x="56.648" y="242.446081" style="stroke: #000000; stroke-width: 0.8"/>
      </g>
     </g>
     <g id="text_9">
      <text style="font-size: 12px; font-family: 'DejaVu Sans', 'Bitstream Vera Sans', 'Computer Modern Sans Serif', 'Lucida Grande', 'Verdana', 'Geneva', 'Lucid', 'Arial', 'Helvetica', 'Avant Garde', sans-serif; text-anchor: end" x="49.648" y="247.005143" transform="rotate(-0 49.648 247.005143)">−1</text>
     </g>
    </g>
    <g id="ytick_4">
     <g id="line2d_17">
      <path d="M 56.648 198.284 
L 565.2 198.284 
" clip-path="url(#pffa5ef1c37)" style="fill: none; stroke: #b0b0b0; stroke-opacity: 0.22; stroke-width: 0.8; stroke-linecap: square"/>
     </g>
     <g id="line2d_18">
      <g>
       <use xlink:href="#med8e6dce1a" x="56.648" y="198.284" style="stroke: #000000; stroke-width: 0.8"/>
      </g>
     </g>
     <g id="text_10">
      <text style="font-size: 12px; font-family: 'DejaVu Sans', 'Bitstream Vera Sans', 'Computer Modern Sans Serif', 'Lucida Grande', 'Verdana', 'Geneva', 'Lucid', 'Arial', 'Helvetica', 'Avant Garde', sans-serif; text-anchor: end" x="49.648" y="202.843063" transform="rotate(-0 49.648 202.843063)">0</text>
     </g>
    </g>
    <g id="ytick_5">
     <g id="line2d_19">
      <path d="M 56.648 154.121919 
L 565.2 154.121919 
" clip-path="url(#pffa5ef1c37)" style="fill: none; stroke: #b0b0b0; stroke-opacity: 0.22; stroke-width: 0.8; stroke-linecap: square"/>
     </g>
     <g id="line2d_20">
      <g>
       <use xlink:href="#med8e6dce1a" x="56.648" y="154.121919" style="stroke: #000000; stroke-width: 0.8"/>
      </g>
     </g>
     <g id="text_11">
      <text style="font-size: 12px; font-family: 'DejaVu Sans', 'Bitstream Vera Sans', 'Computer Modern Sans Serif', 'Lucida Grande', 'Verdana', 'Geneva', 'Lucid', 'Arial', 'Helvetica', 'Avant Garde', sans-serif; text-anchor: end" x="49.648" y="158.680982" transform="rotate(-0 49.648 158.680982)">1</text>
     </g>
    </g>
    <g id="ytick_6">
     <g id="line2d_21">
      <path d="M 56.648 109.959838 
L 565.2 109.959838 
" clip-path="url(#pffa5ef1c37)" style="fill: none; stroke: #b0b0b0; stroke-opacity: 0.22; stroke-width: 0.8; stroke-linecap: square"/>
     </g>
     <g id="line2d_22">
      <g>
       <use xlink:href="#med8e6dce1a" x="56.648" y="109.959838" style="stroke: #000000; stroke-width: 0.8"/>
      </g>
     </g>
     <g id="text_12">
      <text style="font-size: 12px; font-family: 'DejaVu Sans', 'Bitstream Vera Sans', 'Computer Modern Sans Serif', 'Lucida Grande', 'Verdana', 'Geneva', 'Lucid', 'Arial', 'Helvetica', 'Avant Garde', sans-serif; text-anchor: end" x="49.648" y="114.518901" transform="rotate(-0 49.648 114.518901)">2</text>
     </g>
    </g>
    <g id="ytick_7">
     <g id="line2d_23">
      <path d="M 56.648 65.797758 
L 565.2 65.797758 
" clip-path="url(#pffa5ef1c37)" style="fill: none; stroke: #b0b0b0; stroke-opacity: 0.22; stroke-width: 0.8; stroke-linecap: square"/>
     </g>
     <g id="line2d_24">
      <g>
       <use xlink:href="#med8e6dce1a" x="56.648" y="65.797758" style="stroke: #000000; stroke-width: 0.8"/>
      </g>
     </g>
     <g id="text_13">
      <text style="font-size: 12px; font-family: 'DejaVu Sans', 'Bitstream Vera Sans', 'Computer Modern Sans Serif', 'Lucida Grande', 'Verdana', 'Geneva', 'Lucid', 'Arial', 'Helvetica', 'Avant Garde', sans-serif; text-anchor: end" x="49.648" y="70.35682" transform="rotate(-0 49.648 70.35682)">3</text>
     </g>
    </g>
    <g id="text_14">
     <!-- $\operatorname{Im}(\lambda)$ (s$^{-1}$) -->
     <g transform="translate(25.045813 235.384) rotate(-90)">
      <text>
       <tspan x="0" y="-0.498438" style="font-size: 14px; font-family: 'DejaVu Sans'">I</tspan>
       <tspan x="3.628906" y="-0.498438" style="font-size: 14px; font-family: 'DejaVu Sans'">m</tspan>
       <tspan x="17.266602" y="-0.498438" style="font-size: 14px; font-family: 'DejaVu Sans'">(</tspan>
       <tspan x="31.013672" y="-0.498438" style="font-size: 14px; font-family: 'DejaVu Sans'">)</tspan>
       <tspan x="36.475586" y="-0.498438" style="font-size: 14px; font-family: 'DejaVu Sans'"> </tspan>
       <tspan x="40.925781" y="-0.498438" style="font-size: 14px; font-family: 'DejaVu Sans'">(</tspan>
       <tspan x="46.387695" y="-0.498438" style="font-size: 14px; font-family: 'DejaVu Sans'">s</tspan>
       <tspan x="68.644824" y="-0.498438" style="font-size: 14px; font-family: 'DejaVu Sans'">)</tspan>
       <tspan x="22.728516" y="-0.498438" style="font-style: oblique; font-size: 14px; font-family: 'DejaVu Sans'">λ</tspan>
       <tspan x="53.815625" y="-5.857813" style="font-size: 9.8px; font-family: 'DejaVu Sans'">−</tspan>
       <tspan x="62.026953" y="-5.857813" style="font-size: 9.8px; font-family: 'DejaVu Sans'">1</tspan>
      </text>
     </g>
    </g>
   </g>
   <g id="line2d_25">
    <path d="M 492.354069 95.247303 
L 492.252156 94.828893 
L 492.150086 94.412279 
L 492.047856 93.99744 
L 491.945464 93.584356 
L 491.842908 93.173005 
L 491.740186 92.763368 
L 491.637296 92.355425 
L 491.534236 91.949158 
L 491.431004 91.544548 
L 491.327598 91.141576 
" clip-path="url(#pffa5ef1c37)" style="fill: none; stroke: #0f766e; stroke-width: 1.7; stroke-linecap: square"/>
    <defs>
     <path id="m68deefd13d" d="M 0 1.5 
C 0.397805 1.5 0.77937 1.341951 1.06066 1.06066 
C 1.341951 0.77937 1.5 0.397805 1.5 0 
C 1.5 -0.397805 1.341951 -0.77937 1.06066 -1.06066 
C 0.77937 -1.341951 0.397805 -1.5 0 -1.5 
C -0.397805 -1.5 -0.77937 -1.341951 -1.06066 -1.06066 
C -1.341951 -0.77937 -1.5 -0.397805 -1.5 0 
C -1.5 0.397805 -1.341951 0.77937 -1.06066 1.06066 
C -0.77937 1.341951 -0.397805 1.5 0 1.5 
z
" style="stroke: #0f766e"/>
    </defs>
    <g clip-path="url(#pffa5ef1c37)">
     <use xlink:href="#m68deefd13d" x="492.354069" y="95.247303" style="fill: #0f766e; stroke: #0f766e"/>
     <use xlink:href="#m68deefd13d" x="492.252156" y="94.828893" style="fill: #0f766e; stroke: #0f766e"/>
     <use xlink:href="#m68deefd13d" x="492.150086" y="94.412279" style="fill: #0f766e; stroke: #0f766e"/>
     <use xlink:href="#m68deefd13d" x="492.047856" y="93.99744" style="fill: #0f766e; stroke: #0f766e"/>
     <use xlink:href="#m68deefd13d" x="491.945464" y="93.584356" style="fill: #0f766e; stroke: #0f766e"/>
     <use xlink:href="#m68deefd13d" x="491.842908" y="93.173005" style="fill: #0f766e; stroke: #0f766e"/>
     <use xlink:href="#m68deefd13d" x="491.740186" y="92.763368" style="fill: #0f766e; stroke: #0f766e"/>
     <use xlink:href="#m68deefd13d" x="491.637296" y="92.355425" style="fill: #0f766e; stroke: #0f766e"/>
     <use xlink:href="#m68deefd13d" x="491.534236" y="91.949158" style="fill: #0f766e; stroke: #0f766e"/>
     <use xlink:href="#m68deefd13d" x="491.431004" y="91.544548" style="fill: #0f766e; stroke: #0f766e"/>
     <use xlink:href="#m68deefd13d" x="491.327598" y="91.141576" style="fill: #0f766e; stroke: #0f766e"/>
    </g>
   </g>
   <g id="line2d_26">
    <path d="M 492.354069 301.320697 
L 492.252156 301.739107 
L 492.150086 302.155721 
L 492.047856 302.57056 
L 491.945464 302.983644 
L 491.842908 303.394995 
L 491.740186 303.804632 
L 491.637296 304.212575 
L 491.534236 304.618842 
L 491.431004 305.023452 
L 491.327598 305.426424 
" clip-path="url(#pffa5ef1c37)" style="fill: none; stroke: #2563eb; stroke-width: 1.7; stroke-linecap: square"/>
    <defs>
     <path id="m409727aeaf" d="M 0 1.5 
C 0.397805 1.5 0.77937 1.341951 1.06066 1.06066 
C 1.341951 0.77937 1.5 0.397805 1.5 0 
C 1.5 -0.397805 1.341951 -0.77937 1.06066 -1.06066 
C 0.77937 -1.341951 0.397805 -1.5 0 -1.5 
C -0.397805 -1.5 -0.77937 -1.341951 -1.06066 -1.06066 
C -1.341951 -0.77937 -1.5 -0.397805 -1.5 0 
C -1.5 0.397805 -1.341951 0.77937 -1.06066 1.06066 
C -0.77937 1.341951 -0.397805 1.5 0 1.5 
z
" style="stroke: #2563eb"/>
    </defs>
    <g clip-path="url(#pffa5ef1c37)">
     <use xlink:href="#m409727aeaf" x="492.354069" y="301.320697" style="fill: #2563eb; stroke: #2563eb"/>
     <use xlink:href="#m409727aeaf" x="492.252156" y="301.739107" style="fill: #2563eb; stroke: #2563eb"/>
     <use xlink:href="#m409727aeaf" x="492.150086" y="302.155721" style="fill: #2563eb; stroke: #2563eb"/>
     <use xlink:href="#m409727aeaf" x="492.047856" y="302.57056" style="fill: #2563eb; stroke: #2563eb"/>
     <use xlink:href="#m409727aeaf" x="491.945464" y="302.983644" style="fill: #2563eb; stroke: #2563eb"/>
     <use xlink:href="#m409727aeaf" x="491.842908" y="303.394995" style="fill: #2563eb; stroke: #2563eb"/>
     <use xlink:href="#m409727aeaf" x="491.740186" y="303.804632" style="fill: #2563eb; stroke: #2563eb"/>
     <use xlink:href="#m409727aeaf" x="491.637296" y="304.212575" style="fill: #2563eb; stroke: #2563eb"/>
     <use xlink:href="#m409727aeaf" x="491.534236" y="304.618842" style="fill: #2563eb; stroke: #2563eb"/>
     <use xlink:href="#m409727aeaf" x="491.431004" y="305.023452" style="fill: #2563eb; stroke: #2563eb"/>
     <use xlink:href="#m409727aeaf" x="491.327598" y="305.426424" style="fill: #2563eb; stroke: #2563eb"/>
    </g>
   </g>
   <g id="line2d_27">
    <path d="M 105.86271 198.284 
L 105.862945 198.284 
L 105.863181 198.284 
L 105.863417 198.284 
L 105.863653 198.284 
L 105.863889 198.284 
L 105.864126 198.284 
L 105.864362 198.284 
L 105.864598 198.284 
L 105.864835 198.284 
L 105.865072 198.284 
" clip-path="url(#pffa5ef1c37)" style="fill: none; stroke: #e07a19; stroke-width: 1.7; stroke-linecap: square"/>
    <defs>
     <path id="m2f0b9a2758" d="M 0 1.5 
C 0.397805 1.5 0.77937 1.341951 1.06066 1.06066 
C 1.341951 0.77937 1.5 0.397805 1.5 0 
C 1.5 -0.397805 1.341951 -0.77937 1.06066 -1.06066 
C 0.77937 -1.341951 0.397805 -1.5 0 -1.5 
C -0.397805 -1.5 -0.77937 -1.341951 -1.06066 -1.06066 
C -1.341951 -0.77937 -1.5 -0.397805 -1.5 0 
C -1.5 0.397805 -1.341951 0.77937 -1.06066 1.06066 
C -0.77937 1.341951 -0.397805 1.5 0 1.5 
z
" style="stroke: #e07a19"/>
    </defs>
    <g clip-path="url(#pffa5ef1c37)">
     <use xlink:href="#m2f0b9a2758" x="105.86271" y="198.284" style="fill: #e07a19; stroke: #e07a19"/>
     <use xlink:href="#m2f0b9a2758" x="105.862945" y="198.284" style="fill: #e07a19; stroke: #e07a19"/>
     <use xlink:href="#m2f0b9a2758" x="105.863181" y="198.284" style="fill: #e07a19; stroke: #e07a19"/>
     <use xlink:href="#m2f0b9a2758" x="105.863417" y="198.284" style="fill: #e07a19; stroke: #e07a19"/>
     <use xlink:href="#m2f0b9a2758" x="105.863653" y="198.284" style="fill: #e07a19; stroke: #e07a19"/>
     <use xlink:href="#m2f0b9a2758" x="105.863889" y="198.284" style="fill: #e07a19; stroke: #e07a19"/>
     <use xlink:href="#m2f0b9a2758" x="105.864126" y="198.284" style="fill: #e07a19; stroke: #e07a19"/>
     <use xlink:href="#m2f0b9a2758" x="105.864362" y="198.284" style="fill: #e07a19; stroke: #e07a19"/>
     <use xlink:href="#m2f0b9a2758" x="105.864598" y="198.284" style="fill: #e07a19; stroke: #e07a19"/>
     <use xlink:href="#m2f0b9a2758" x="105.864835" y="198.284" style="fill: #e07a19; stroke: #e07a19"/>
     <use xlink:href="#m2f0b9a2758" x="105.865072" y="198.284" style="fill: #e07a19; stroke: #e07a19"/>
    </g>
   </g>
   <g id="line2d_28">
    <path d="M 515.540599 198.284 
L 515.550783 198.284 
L 515.560777 198.284 
L 515.570586 198.284 
L 515.580214 198.284 
L 515.589666 198.284 
L 515.598945 198.284 
L 515.608055 198.284 
L 515.617001 198.284 
L 515.625786 198.284 
L 515.634414 198.284 
" clip-path="url(#pffa5ef1c37)" style="fill: none; stroke: #8b5cf6; stroke-width: 1.7; stroke-linecap: square"/>
    <defs>
     <path id="m79bcc1d230" d="M 0 1.5 
C 0.397805 1.5 0.77937 1.341951 1.06066 1.06066 
C 1.341951 0.77937 1.5 0.397805 1.5 0 
C 1.5 -0.397805 1.341951 -0.77937 1.06066 -1.06066 
C 0.77937 -1.341951 0.397805 -1.5 0 -1.5 
C -0.397805 -1.5 -0.77937 -1.341951 -1.06066 -1.06066 
C -1.341951 -0.77937 -1.5 -0.397805 -1.5 0 
C -1.5 0.397805 -1.341951 0.77937 -1.06066 1.06066 
C -0.77937 1.341951 -0.397805 1.5 0 1.5 
z
" style="stroke: #8b5cf6"/>
    </defs>
    <g clip-path="url(#pffa5ef1c37)">
     <use xlink:href="#m79bcc1d230" x="515.540599" y="198.284" style="fill: #8b5cf6; stroke: #8b5cf6"/>
     <use xlink:href="#m79bcc1d230" x="515.550783" y="198.284" style="fill: #8b5cf6; stroke: #8b5cf6"/>
     <use xlink:href="#m79bcc1d230" x="515.560777" y="198.284" style="fill: #8b5cf6; stroke: #8b5cf6"/>
     <use xlink:href="#m79bcc1d230" x="515.570586" y="198.284" style="fill: #8b5cf6; stroke: #8b5cf6"/>
     <use xlink:href="#m79bcc1d230" x="515.580214" y="198.284" style="fill: #8b5cf6; stroke: #8b5cf6"/>
     <use xlink:href="#m79bcc1d230" x="515.589666" y="198.284" style="fill: #8b5cf6; stroke: #8b5cf6"/>
     <use xlink:href="#m79bcc1d230" x="515.598945" y="198.284" style="fill: #8b5cf6; stroke: #8b5cf6"/>
     <use xlink:href="#m79bcc1d230" x="515.608055" y="198.284" style="fill: #8b5cf6; stroke: #8b5cf6"/>
     <use xlink:href="#m79bcc1d230" x="515.617001" y="198.284" style="fill: #8b5cf6; stroke: #8b5cf6"/>
     <use xlink:href="#m79bcc1d230" x="515.625786" y="198.284" style="fill: #8b5cf6; stroke: #8b5cf6"/>
     <use xlink:href="#m79bcc1d230" x="515.634414" y="198.284" style="fill: #8b5cf6; stroke: #8b5cf6"/>
    </g>
   </g>
   <g id="line2d_29">
    <path d="M 515.98529 339.712 
L 515.98529 56.856 
" clip-path="url(#pffa5ef1c37)" style="fill: none; stroke: #000000; stroke-opacity: 0.55; stroke-width: 0.8; stroke-linecap: square"/>
   </g>
   <g id="line2d_30">
    <path d="M 56.648 198.284 
L 565.2 198.284 
" clip-path="url(#pffa5ef1c37)" style="fill: none; stroke: #000000; stroke-opacity: 0.55; stroke-width: 0.8; stroke-linecap: square"/>
   </g>
   <g id="patch_3">
    <path d="M 56.648 339.712 
L 56.648 56.856 
" style="fill: none; stroke: #000000; stroke-width: 0.8; stroke-linejoin: miter; stroke-linecap: square"/>
   </g>
   <g id="patch_4">
    <path d="M 565.2 339.712 
L 565.2 56.856 
" style="fill: none; stroke: #000000; stroke-width: 0.8; stroke-linejoin: miter; stroke-linecap: square"/>
   </g>
   <g id="patch_5">
    <path d="M 56.648 339.712 
L 565.2 339.712 
" style="fill: none; stroke: #000000; stroke-width: 0.8; stroke-linejoin: miter; stroke-linecap: square"/>
   </g>
   <g id="patch_6">
    <path d="M 56.648 56.856 
L 565.2 56.856 
" style="fill: none; stroke: #000000; stroke-width: 0.8; stroke-linejoin: miter; stroke-linecap: square"/>
   </g>
   <g id="text_15">
    <text style="font-size: 16px; font-family: 'DejaVu Sans', 'Bitstream Vera Sans', 'Computer Modern Sans Serif', 'Lucida Grande', 'Verdana', 'Geneva', 'Lucid', 'Arial', 'Helvetica', 'Avant Garde', sans-serif" transform="translate(166.40275 24.5715)">Navion | Chuyển động ngang-hướng</text>
    <text style="font-size: 16px; font-family: 'DejaVu Sans', 'Bitstream Vera Sans', 'Computer Modern Sans Serif', 'Lucida Grande', 'Verdana', 'Geneva', 'Lucid', 'Arial', 'Helvetica', 'Avant Garde', sans-serif" transform="translate(199.04525 44.856)">Thay đổi SM từ 0 đến +50%</text>
   </g>
   <g id="PathCollection_1">
    <defs>
     <path id="m9468e4baa1" d="M 0 4.062019 
C 1.07726 4.062019 2.110543 3.634019 2.872281 2.872281 
C 3.634019 2.110543 4.062019 1.07726 4.062019 0 
C 4.062019 -1.07726 3.634019 -2.110543 2.872281 -2.872281 
C 2.110543 -3.634019 1.07726 -4.062019 0 -4.062019 
C -1.07726 -4.062019 -2.110543 -3.634019 -2.872281 -2.872281 
C -3.634019 -2.110543 -4.062019 -1.07726 -4.062019 0 
C -4.062019 1.07726 -3.634019 2.110543 -2.872281 2.872281 
C -2.110543 3.634019 -1.07726 4.062019 0 4.062019 
z
" style="stroke: #0f766e; stroke-width: 1.8"/>
    </defs>
    <g clip-path="url(#pffa5ef1c37)">
     <use xlink:href="#m9468e4baa1" x="492.354069" y="95.247303" style="fill: #ffffff; stroke: #0f766e; stroke-width: 1.8"/>
    </g>
   </g>
   <g id="PathCollection_2">
    <defs>
     <path id="m5070a65c62" d="M 0 4.062019 
C 1.07726 4.062019 2.110543 3.634019 2.872281 2.872281 
C 3.634019 2.110543 4.062019 1.07726 4.062019 0 
C 4.062019 -1.07726 3.634019 -2.110543 2.872281 -2.872281 
C 2.110543 -3.634019 1.07726 -4.062019 0 -4.062019 
C -1.07726 -4.062019 -2.110543 -3.634019 -2.872281 -2.872281 
C -3.634019 -2.110543 -4.062019 -1.07726 -4.062019 0 
C -4.062019 1.07726 -3.634019 2.110543 -2.872281 2.872281 
C -2.110543 3.634019 -1.07726 4.062019 0 4.062019 
z
" style="stroke: #2563eb; stroke-width: 1.8"/>
    </defs>
    <g clip-path="url(#pffa5ef1c37)">
     <use xlink:href="#m5070a65c62" x="492.354069" y="301.320697" style="fill: #ffffff; stroke: #2563eb; stroke-width: 1.8"/>
    </g>
   </g>
   <g id="PathCollection_3">
    <defs>
     <path id="m114258eecc" d="M 0 4.062019 
C 1.07726 4.062019 2.110543 3.634019 2.872281 2.872281 
C 3.634019 2.110543 4.062019 1.07726 4.062019 0 
C 4.062019 -1.07726 3.634019 -2.110543 2.872281 -2.872281 
C 2.110543 -3.634019 1.07726 -4.062019 0 -4.062019 
C -1.07726 -4.062019 -2.110543 -3.634019 -2.872281 -2.872281 
C -3.634019 -2.110543 -4.062019 -1.07726 -4.062019 0 
C -4.062019 1.07726 -3.634019 2.110543 -2.872281 2.872281 
C -2.110543 3.634019 -1.07726 4.062019 0 4.062019 
z
" style="stroke: #e07a19; stroke-width: 1.8"/>
    </defs>
    <g clip-path="url(#pffa5ef1c37)">
     <use xlink:href="#m114258eecc" x="105.86271" y="198.284" style="fill: #ffffff; stroke: #e07a19; stroke-width: 1.8"/>
    </g>
   </g>
   <g id="PathCollection_4">
    <defs>
     <path id="m6dbd0e8c5c" d="M 0 4.062019 
C 1.07726 4.062019 2.110543 3.634019 2.872281 2.872281 
C 3.634019 2.110543 4.062019 1.07726 4.062019 0 
C 4.062019 -1.07726 3.634019 -2.110543 2.872281 -2.872281 
C 2.110543 -3.634019 1.07726 -4.062019 0 -4.062019 
C -1.07726 -4.062019 -2.110543 -3.634019 -2.872281 -2.872281 
C -3.634019 -2.110543 -4.062019 -1.07726 -4.062019 0 
C -4.062019 1.07726 -3.634019 2.110543 -2.872281 2.872281 
C -2.110543 3.634019 -1.07726 4.062019 0 4.062019 
z
" style="stroke: #8b5cf6; stroke-width: 1.8"/>
    </defs>
    <g clip-path="url(#pffa5ef1c37)">
     <use xlink:href="#m6dbd0e8c5c" x="515.540599" y="198.284" style="fill: #ffffff; stroke: #8b5cf6; stroke-width: 1.8"/>
    </g>
   </g>
   <g id="axes_2">
    <g id="patch_7">
     <path d="M 199.04256 158.68416 
L 392.29232 158.68416 
L 392.29232 87.97016 
L 199.04256 87.97016 
z
" style="fill: #ffffff"/>
    </g>
    <g id="matplotlib.axis_3">
     <g id="xtick_6">
      <g id="line2d_31">
       <path d="M 239.979155 158.68416 
L 239.979155 87.97016 
" clip-path="url(#p19d911f2c3)" style="fill: none; stroke: #b0b0b0; stroke-opacity: 0.25; stroke-width: 0.8; stroke-linecap: square"/>
      </g>
      <g id="line2d_32">
       <g>
        <use xlink:href="#mefd4ac3f7d" x="239.979155" y="158.68416" style="stroke: #000000; stroke-width: 0.8"/>
       </g>
      </g>
      <g id="text_16">
       <text style="font-size: 10px; font-family: 'DejaVu Sans', 'Bitstream Vera Sans', 'Computer Modern Sans Serif', 'Lucida Grande', 'Verdana', 'Geneva', 'Lucid', 'Arial', 'Helvetica', 'Avant Garde', sans-serif; text-anchor: middle" x="239.979155" y="173.282598" transform="rotate(-0 239.979155 173.282598)">−0.008</text>
      </g>
     </g>
     <g id="xtick_7">
      <g id="line2d_33">
       <path d="M 304.986713 158.68416 
L 304.986713 87.97016 
" clip-path="url(#p19d911f2c3)" style="fill: none; stroke: #b0b0b0; stroke-opacity: 0.25; stroke-width: 0.8; stroke-linecap: square"/>
      </g>
      <g id="line2d_34">
       <g>
        <use xlink:href="#mefd4ac3f7d" x="304.986713" y="158.68416" style="stroke: #000000; stroke-width: 0.8"/>
       </g>
      </g>
      <g id="text_17">
       <text style="font-size: 10px; font-family: 'DejaVu Sans', 'Bitstream Vera Sans', 'Computer Modern Sans Serif', 'Lucida Grande', 'Verdana', 'Geneva', 'Lucid', 'Arial', 'Helvetica', 'Avant Garde', sans-serif; text-anchor: middle" x="304.986713" y="173.282598" transform="rotate(-0 304.986713 173.282598)">−0.004</text>
      </g>
     </g>
     <g id="xtick_8">
      <g id="line2d_35">
       <path d="M 369.994271 158.68416 
L 369.994271 87.97016 
" clip-path="url(#p19d911f2c3)" style="fill: none; stroke: #b0b0b0; stroke-opacity: 0.25; stroke-width: 0.8; stroke-linecap: square"/>
      </g>
      <g id="line2d_36">
       <g>
        <use xlink:href="#mefd4ac3f7d" x="369.994271" y="158.68416" style="stroke: #000000; stroke-width: 0.8"/>
       </g>
      </g>
      <g id="text_18">
       <text style="font-size: 10px; font-family: 'DejaVu Sans', 'Bitstream Vera Sans', 'Computer Modern Sans Serif', 'Lucida Grande', 'Verdana', 'Geneva', 'Lucid', 'Arial', 'Helvetica', 'Avant Garde', sans-serif; text-anchor: middle" x="369.994271" y="173.282598" transform="rotate(-0 369.994271 173.282598)">0.000</text>
      </g>
     </g>
     <g id="text_19">
      <!-- $\operatorname{Re}(\lambda)$ -->
      <g transform="translate(280.87244 187.720566)">
       <text>
        <tspan x="0" y="-0.640625" style="font-size: 11px; font-family: 'DejaVu Sans'">R</tspan>
        <tspan x="7.643066" y="-0.640625" style="font-size: 11px; font-family: 'DejaVu Sans'">e</tspan>
        <tspan x="14.410645" y="-0.640625" style="font-size: 11px; font-family: 'DejaVu Sans'">(</tspan>
        <tspan x="25.211914" y="-0.640625" style="font-size: 11px; font-family: 'DejaVu Sans'">)</tspan>
        <tspan x="18.702148" y="-0.640625" style="font-style: oblique; font-size: 11px; font-family: 'DejaVu Sans'">λ</tspan>
       </text>
      </g>
     </g>
    </g>
    <g id="matplotlib.axis_4">
     <g id="ytick_8">
      <g id="line2d_37">
       <path d="M 199.04256 149.84491 
L 392.29232 149.84491 
" clip-path="url(#p19d911f2c3)" style="fill: none; stroke: #b0b0b0; stroke-opacity: 0.25; stroke-width: 0.8; stroke-linecap: square"/>
      </g>
      <g id="line2d_38">
       <g>
        <use xlink:href="#med8e6dce1a" x="199.04256" y="149.84491" style="stroke: #000000; stroke-width: 0.8"/>
       </g>
      </g>
      <g id="text_20">
       <text style="font-size: 10px; font-family: 'DejaVu Sans', 'Bitstream Vera Sans', 'Computer Modern Sans Serif', 'Lucida Grande', 'Verdana', 'Geneva', 'Lucid', 'Arial', 'Helvetica', 'Avant Garde', sans-serif; text-anchor: end" x="192.04256" y="153.644129" transform="rotate(-0 192.04256 153.644129)">−0.0015</text>
      </g>
     </g>
     <g id="ytick_9">
      <g id="line2d_39">
       <path d="M 199.04256 123.32716 
L 392.29232 123.32716 
" clip-path="url(#p19d911f2c3)" style="fill: none; stroke: #b0b0b0; stroke-opacity: 0.25; stroke-width: 0.8; stroke-linecap: square"/>
      </g>
      <g id="line2d_40">
       <g>
        <use xlink:href="#med8e6dce1a" x="199.04256" y="123.32716" style="stroke: #000000; stroke-width: 0.8"/>
       </g>
      </g>
      <g id="text_21">
       <text style="font-size: 10px; font-family: 'DejaVu Sans', 'Bitstream Vera Sans', 'Computer Modern Sans Serif', 'Lucida Grande', 'Verdana', 'Geneva', 'Lucid', 'Arial', 'Helvetica', 'Avant Garde', sans-serif; text-anchor: end" x="192.04256" y="127.126379" transform="rotate(-0 192.04256 127.126379)">0.0000</text>
      </g>
     </g>
     <g id="ytick_10">
      <g id="line2d_41">
       <path d="M 199.04256 96.80941 
L 392.29232 96.80941 
" clip-path="url(#p19d911f2c3)" style="fill: none; stroke: #b0b0b0; stroke-opacity: 0.25; stroke-width: 0.8; stroke-linecap: square"/>
      </g>
      <g id="line2d_42">
       <g>
        <use xlink:href="#med8e6dce1a" x="199.04256" y="96.80941" style="stroke: #000000; stroke-width: 0.8"/>
       </g>
      </g>
      <g id="text_22">
       <text style="font-size: 10px; font-family: 'DejaVu Sans', 'Bitstream Vera Sans', 'Computer Modern Sans Serif', 'Lucida Grande', 'Verdana', 'Geneva', 'Lucid', 'Arial', 'Helvetica', 'Avant Garde', sans-serif; text-anchor: end" x="192.04256" y="100.608629" transform="rotate(-0 192.04256 100.608629)">0.0015</text>
      </g>
     </g>
     <g id="text_23">
      <!-- $\operatorname{Im}(\lambda)$ -->
      <g transform="translate(142.384591 137.68216) rotate(-90)">
       <text>
        <tspan x="0" y="-0.640625" style="font-size: 11px; font-family: 'DejaVu Sans'">I</tspan>
        <tspan x="2.869141" y="-0.640625" style="font-size: 11px; font-family: 'DejaVu Sans'">m</tspan>
        <tspan x="13.584473" y="-0.640625" style="font-size: 11px; font-family: 'DejaVu Sans'">(</tspan>
        <tspan x="24.385742" y="-0.640625" style="font-size: 11px; font-family: 'DejaVu Sans'">)</tspan>
        <tspan x="17.875977" y="-0.640625" style="font-style: oblique; font-size: 11px; font-family: 'DejaVu Sans'">λ</tspan>
       </text>
      </g>
     </g>
    </g>
    <g id="line2d_43">
     <path d="M 221.340609 123.32716 
L 224.744983 123.32716 
L 228.085906 123.32716 
L 231.364895 123.32716 
L 234.58342 123.32716 
L 237.742903 123.32716 
L 240.844721 123.32716 
L 243.89021 123.32716 
L 246.880666 123.32716 
L 249.817342 123.32716 
L 252.701456 123.32716 
" clip-path="url(#p19d911f2c3)" style="fill: none; stroke: #8b5cf6; stroke-width: 1.5; stroke-linecap: square"/>
     <g clip-path="url(#p19d911f2c3)">
      <use xlink:href="#m79bcc1d230" x="221.340609" y="123.32716" style="fill: #8b5cf6; stroke: #8b5cf6"/>
      <use xlink:href="#m79bcc1d230" x="224.744983" y="123.32716" style="fill: #8b5cf6; stroke: #8b5cf6"/>
      <use xlink:href="#m79bcc1d230" x="228.085906" y="123.32716" style="fill: #8b5cf6; stroke: #8b5cf6"/>
      <use xlink:href="#m79bcc1d230" x="231.364895" y="123.32716" style="fill: #8b5cf6; stroke: #8b5cf6"/>
      <use xlink:href="#m79bcc1d230" x="234.58342" y="123.32716" style="fill: #8b5cf6; stroke: #8b5cf6"/>
      <use xlink:href="#m79bcc1d230" x="237.742903" y="123.32716" style="fill: #8b5cf6; stroke: #8b5cf6"/>
      <use xlink:href="#m79bcc1d230" x="240.844721" y="123.32716" style="fill: #8b5cf6; stroke: #8b5cf6"/>
      <use xlink:href="#m79bcc1d230" x="243.89021" y="123.32716" style="fill: #8b5cf6; stroke: #8b5cf6"/>
      <use xlink:href="#m79bcc1d230" x="246.880666" y="123.32716" style="fill: #8b5cf6; stroke: #8b5cf6"/>
      <use xlink:href="#m79bcc1d230" x="249.817342" y="123.32716" style="fill: #8b5cf6; stroke: #8b5cf6"/>
      <use xlink:href="#m79bcc1d230" x="252.701456" y="123.32716" style="fill: #8b5cf6; stroke: #8b5cf6"/>
     </g>
    </g>
    <g id="line2d_44">
     <path d="M 369.994271 158.68416 
L 369.994271 87.97016 
" clip-path="url(#p19d911f2c3)" style="fill: none; stroke-dasharray: 2.96,1.28; stroke-dashoffset: 0; stroke: #000000; stroke-width: 0.8"/>
    </g>
    <g id="patch_8">
     <path d="M 199.04256 158.68416 
L 199.04256 87.97016 
" style="fill: none; stroke: #000000; stroke-width: 0.8; stroke-linejoin: miter; stroke-linecap: square"/>
    </g>
    <g id="patch_9">
     <path d="M 392.29232 158.68416 
L 392.29232 87.97016 
" style="fill: none; stroke: #000000; stroke-width: 0.8; stroke-linejoin: miter; stroke-linecap: square"/>
    </g>
    <g id="patch_10">
     <path d="M 199.04256 158.68416 
L 392.29232 158.68416 
" style="fill: none; stroke: #000000; stroke-width: 0.8; stroke-linejoin: miter; stroke-linecap: square"/>
    </g>
    <g id="patch_11">
     <path d="M 199.04256 87.97016 
L 392.29232 87.97016 
" style="fill: none; stroke: #000000; stroke-width: 0.8; stroke-linejoin: miter; stroke-linecap: square"/>
    </g>
    <g id="text_24">
     <text style="font-size: 11px; font-family: 'DejaVu Sans', 'Bitstream Vera Sans', 'Computer Modern Sans Serif', 'Lucida Grande', 'Verdana', 'Geneva', 'Lucid', 'Arial', 'Helvetica', 'Avant Garde', sans-serif; text-anchor: middle" x="295.66744" y="81.97016" transform="rotate(-0 295.66744 81.97016)">Phóng to: Spiral</text>
    </g>
    <g id="PathCollection_5">
     <defs>
      <path id="ma10453700b" d="M 0 3.708099 
C 0.983399 3.708099 1.926654 3.317391 2.622022 2.622022 
C 3.317391 1.926654 3.708099 0.983399 3.708099 0 
C 3.708099 -0.983399 3.317391 -1.926654 2.622022 -2.622022 
C 1.926654 -3.317391 0.983399 -3.708099 0 -3.708099 
C -0.983399 -3.708099 -1.926654 -3.317391 -2.622022 -2.622022 
C -3.317391 -1.926654 -3.708099 -0.983399 -3.708099 0 
C -3.708099 0.983399 -3.317391 1.926654 -2.622022 2.622022 
C -1.926654 3.317391 -0.983399 3.708099 0 3.708099 
z
" style="stroke: #8b5cf6; stroke-width: 1.5"/>
     </defs>
     <g clip-path="url(#p19d911f2c3)">
      <use xlink:href="#ma10453700b" x="221.340609" y="123.32716" style="fill: #ffffff; stroke: #8b5cf6; stroke-width: 1.5"/>
     </g>
    </g>
    <g id="PathCollection_6">
     <defs>
      <path id="mc7d00e5215" d="M -3.872983 3.872983 
L 3.872983 -3.872983 
M -3.872983 -3.872983 
L 3.872983 3.872983 
" style="stroke: #8b5cf6; stroke-width: 1.8"/>
     </defs>
     <g clip-path="url(#p19d911f2c3)">
      <use xlink:href="#mc7d00e5215" x="252.701456" y="123.32716" style="fill: #8b5cf6; stroke: #8b5cf6; stroke-width: 1.8"/>
     </g>
    </g>
   </g>
   <g id="PathCollection_7">
    <defs>
     <path id="m0b02730525" d="M -3.872983 3.872983 
L 3.872983 -3.872983 
M -3.872983 -3.872983 
L 3.872983 3.872983 
" style="stroke: #0f766e; stroke-width: 2"/>
    </defs>
    <g clip-path="url(#pffa5ef1c37)">
     <use xlink:href="#m0b02730525" x="491.327598" y="91.141576" style="fill: #0f766e; stroke: #0f766e; stroke-width: 2"/>
    </g>
   </g>
   <g id="PathCollection_8">
    <defs>
     <path id="ma90da9f391" d="M -3.872983 3.872983 
L 3.872983 -3.872983 
M -3.872983 -3.872983 
L 3.872983 3.872983 
" style="stroke: #2563eb; stroke-width: 2"/>
    </defs>
    <g clip-path="url(#pffa5ef1c37)">
     <use xlink:href="#ma90da9f391" x="491.327598" y="305.426424" style="fill: #2563eb; stroke: #2563eb; stroke-width: 2"/>
    </g>
   </g>
   <g id="PathCollection_9">
    <defs>
     <path id="m0b02b84ad4" d="M -3.872983 3.872983 
L 3.872983 -3.872983 
M -3.872983 -3.872983 
L 3.872983 3.872983 
" style="stroke: #e07a19; stroke-width: 2"/>
    </defs>
    <g clip-path="url(#pffa5ef1c37)">
     <use xlink:href="#m0b02b84ad4" x="105.865072" y="198.284" style="fill: #e07a19; stroke: #e07a19; stroke-width: 2"/>
    </g>
   </g>
   <g id="PathCollection_10">
    <defs>
     <path id="m82fedf8e9b" d="M -3.872983 3.872983 
L 3.872983 -3.872983 
M -3.872983 -3.872983 
L 3.872983 3.872983 
" style="stroke: #8b5cf6; stroke-width: 2"/>
    </defs>
    <g clip-path="url(#pffa5ef1c37)">
     <use xlink:href="#m82fedf8e9b" x="515.634414" y="198.284" style="fill: #8b5cf6; stroke: #8b5cf6; stroke-width: 2"/>
    </g>
   </g>
  </g>
  <g id="text_25">
   <text style="font-size: 11px; font-family: 'DejaVu Sans', 'Bitstream Vera Sans', 'Computer Modern Sans Serif', 'Lucida Grande', 'Verdana', 'Geneva', 'Lucid', 'Arial', 'Helvetica', 'Avant Garde', sans-serif" transform="translate(165.042344 464.612387)">○ Cấu hình chuẩn (0%)    × Bước 10 (+50%)</text>
   <text style="font-size: 11px; font-family: 'DejaVu Sans', 'Bitstream Vera Sans', 'Computer Modern Sans Serif', 'Lucida Grande', 'Verdana', 'Geneva', 'Lucid', 'Arial', 'Helvetica', 'Avant Garde', sans-serif" transform="translate(193.858906 478.499544)">Mỗi bước +5% so với giá trị chuẩn</text>
  </g>
  <g id="legend_1">
   <g id="patch_12">
    <path d="M 195.279453 440.036 
L 380.720547 440.036 
Q 382.920547 440.036 382.920547 437.836 
L 382.920547 406.644125 
Q 382.920547 404.444125 380.720547 404.444125 
L 195.279453 404.444125 
Q 193.079453 404.444125 193.079453 406.644125 
L 193.079453 437.836 
Q 193.079453 440.036 195.279453 440.036 
z
" style="fill: #ffffff; opacity: 0.8; stroke: #cccccc; stroke-linejoin: miter"/>
   </g>
   <g id="line2d_45">
    <path d="M 197.479453 413.352406 
L 208.479453 413.352406 
L 219.479453 413.352406 
" style="fill: none; stroke: #0f766e; stroke-width: 1.7; stroke-linecap: square"/>
    <g>
     <use xlink:href="#m68deefd13d" x="208.479453" y="413.352406" style="fill: #0f766e; stroke: #0f766e"/>
    </g>
   </g>
   <g id="text_26">
    <text style="font-size: 11px; font-family: 'DejaVu Sans', 'Bitstream Vera Sans', 'Computer Modern Sans Serif', 'Lucida Grande', 'Verdana', 'Geneva', 'Lucid', 'Arial', 'Helvetica', 'Avant Garde', sans-serif; text-anchor: start" x="228.279453" y="417.202406" transform="rotate(-0 228.279453 417.202406)">Dutch roll +</text>
   </g>
   <g id="line2d_46">
    <path d="M 197.479453 429.498344 
L 208.479453 429.498344 
L 219.479453 429.498344 
" style="fill: none; stroke: #2563eb; stroke-width: 1.7; stroke-linecap: square"/>
    <g>
     <use xlink:href="#m409727aeaf" x="208.479453" y="429.498344" style="fill: #2563eb; stroke: #2563eb"/>
    </g>
   </g>
   <g id="text_27">
    <text style="font-size: 11px; font-family: 'DejaVu Sans', 'Bitstream Vera Sans', 'Computer Modern Sans Serif', 'Lucida Grande', 'Verdana', 'Geneva', 'Lucid', 'Arial', 'Helvetica', 'Avant Garde', sans-serif; text-anchor: start" x="228.279453" y="433.348344" transform="rotate(-0 228.279453 433.348344)">Dutch roll −</text>
   </g>
   <g id="line2d_47">
    <path d="M 316.379141 413.352406 
L 327.379141 413.352406 
L 338.379141 413.352406 
" style="fill: none; stroke: #e07a19; stroke-width: 1.7; stroke-linecap: square"/>
    <g>
     <use xlink:href="#m2f0b9a2758" x="327.379141" y="413.352406" style="fill: #e07a19; stroke: #e07a19"/>
    </g>
   </g>
   <g id="text_28">
    <text style="font-size: 11px; font-family: 'DejaVu Sans', 'Bitstream Vera Sans', 'Computer Modern Sans Serif', 'Lucida Grande', 'Verdana', 'Geneva', 'Lucid', 'Arial', 'Helvetica', 'Avant Garde', sans-serif; text-anchor: start" x="347.179141" y="417.202406" transform="rotate(-0 347.179141 417.202406)">Roll</text>
   </g>
   <g id="line2d_48">
    <path d="M 316.379141 429.498344 
L 327.379141 429.498344 
L 338.379141 429.498344 
" style="fill: none; stroke: #8b5cf6; stroke-width: 1.7; stroke-linecap: square"/>
    <g>
     <use xlink:href="#m79bcc1d230" x="327.379141" y="429.498344" style="fill: #8b5cf6; stroke: #8b5cf6"/>
    </g>
   </g>
   <g id="text_29">
    <text style="font-size: 11px; font-family: 'DejaVu Sans', 'Bitstream Vera Sans', 'Computer Modern Sans Serif', 'Lucida Grande', 'Verdana', 'Geneva', 'Lucid', 'Arial', 'Helvetica', 'Avant Garde', sans-serif; text-anchor: start" x="347.179141" y="433.348344" transform="rotate(-0 347.179141 433.348344)">Spiral</text>
   </g>
  </g>
 </g>
 <defs>
  <clipPath id="pffa5ef1c37">
   <rect x="56.648" y="56.856" width="508.552" height="282.856"/>
  </clipPath>
  <clipPath id="p19d911f2c3">
   <rect x="199.04256" y="87.97016" width="193.24976" height="70.714"/>
  </clipPath>
 </defs>
</svg>
