<?xml version="1.0" encoding="utf-8" standalone="no"?>
<!DOCTYPE svg PUBLIC "-//W3C//DTD SVG 1.1//EN"
  "http://www.w3.org/Graphics/SVG/1.1/DTD/svg11.dtd">
<svg xmlns:xlink="http://www.w3.org/1999/xlink" width="792pt" height="720pt" viewBox="0 0 792 720" xmlns="http://www.w3.org/2000/svg" version="1.1">
 <metadata>
  <rdf:RDF xmlns:dc="http://purl.org/dc/elements/1.1/" xmlns:cc="http://creativecommons.org/ns#" xmlns:rdf="http://www.w3.org/1999/02/22-rdf-syntax-ns#">
   <cc:Work>
    <dc:type rdf:resource="http://purl.org/dc/dcmitype/StillImage"/>
    <dc:date>2026-09-22T13:10:03.513755</dc:date>
    <dc:format>image/svg+xml</dc:format>
    <dc:creator>
     <cc:Agent>
      <dc:title>Matplotlib v3.10.1, https://matplotlib.org/</dc:title>
     </cc:Agent>
    </dc:creator>
   </cc:Work>
  </rdf:RDF>
 </metadata>
 <defs>
  <style type="text/css">*{stroke-linejoin: round; stroke-linecap: butt}</style>
 </defs>
 <g id="figure_1">
  <g id="patch_1">
   <path d="M 0 720 
L 792 720 
L 792 0 
L 0 0 
z
" style="fill: #ffffff"/>
  </g>
  <g id="axes_1">
   <g id="patch_2">
    <path d="M 65.947944 228.103 
L 774.855 228.103 
L 774.855 100.944 
L 65.947944 100.944 
z
" style="fill: #ffffff"/>
   </g>
   <g id="matplotlib.axis_1">
    <g id="xtick_1">
     <g id="line2d_1">
      <path d="M 65.947944 228.103 
L 65.947944 100.944 
" clip-path="url(#p5d36e3f44f)" style="fill: none; stroke: #b0b0b0; stroke-opacity: 0.25; stroke-width: 0.8; stroke-linecap: square"/>
     </g>
     <g id="line2d_2">
      <defs>
       <path id="m8d8b3a6c82" d="M 0 0 
L 0 3.5 
" style="stroke: #000000; stroke-width: 0.8"/>
      </defs>
      <g>
       <use xlink:href="#m8d8b3a6c82" x="65.947944" y="228.103" style="stroke: #000000; stroke-width: 0.8"/>
      </g>
     </g>
    </g>
    <g id="xtick_2">
     <g id="line2d_3">
      <path d="M 184.09912 228.103 
L 184.09912 100.944 
" clip-path="url(#p5d36e3f44f)" style="fill: none; stroke: #b0b0b0; stroke-opacity: 0.25; stroke-width: 0.8; stroke-linecap: square"/>
     </g>
     <g id="line2d_4">
      <g>
       <use xlink:href="#m8d8b3a6c82" x="184.09912" y="228.103" style="stroke: #000000; stroke-width: 0.8"/>
      </g>
     </g>
    </g>
    <g id="xtick_3">
     <g id="line2d_5">
      <path d="M 302.250296 228.103 
L 302.250296 100.944 
" clip-path="url(#p5d36e3f44f)" style="fill: none; stroke: #b0b0b0; stroke-opacity: 0.25; stroke-width: 0.8; stroke-linecap: square"/>
     </g>
     <g id="line2d_6">
      <g>
       <use xlink:href="#m8d8b3a6c82" x="302.250296" y="228.103" style="stroke: #000000; stroke-width: 0.8"/>
      </g>
     </g>
    </g>
    <g id="xtick_4">
     <g id="line2d_7">
      <path d="M 420.401472 228.103 
L 420.401472 100.944 
" clip-path="url(#p5d36e3f44f)" style="fill: none; stroke: #b0b0b0; stroke-opacity: 0.25; stroke-width: 0.8; stroke-linecap: square"/>
     </g>
     <g id="line2d_8">
      <g>
       <use xlink:href="#m8d8b3a6c82" x="420.401472" y="228.103" style="stroke: #000000; stroke-width: 0.8"/>
      </g>
     </g>
    </g>
    <g id="xtick_5">
     <g id="line2d_9">
      <path d="M 538.552648 228.103 
L 538.552648 100.944 
" clip-path="url(#p5d36e3f44f)" style="fill: none; stroke: #b0b0b0; stroke-opacity: 0.25; stroke-width: 0.8; stroke-linecap: square"/>
     </g>
     <g id="line2d_10">
      <g>
       <use xlink:href="#m8d8b3a6c82" x="538.552648" y="228.103" style="stroke: #000000; stroke-width: 0.8"/>
      </g>
     </g>
    </g>
    <g id="xtick_6">
     <g id="line2d_11">
      <path d="M 656.703824 228.103 
L 656.703824 100.944 
" clip-path="url(#p5d36e3f44f)" style="fill: none; stroke: #b0b0b0; stroke-opacity: 0.25; stroke-width: 0.8; stroke-linecap: square"/>
     </g>
     <g id="line2d_12">
      <g>
       <use xlink:href="#m8d8b3a6c82" x="656.703824" y="228.103" style="stroke: #000000; stroke-width: 0.8"/>
      </g>
     </g>
    </g>
    <g id="xtick_7">
     <g id="line2d_13">
      <path d="M 774.855 228.103 
L 774.855 100.944 
" clip-path="url(#p5d36e3f44f)" style="fill: none; stroke: #b0b0b0; stroke-opacity: 0.25; stroke-width: 0.8; stroke-linecap: square"/>
     </g>
     <g id="line2d_14">
      <g>
       <use xlink:href="#m8d8b3a6c82" x="774.855" y="228.103" style="stroke: #000000; stroke-width: 0.8"/>
      </g>
     </g>
    </g>
   </g>
   <g id="matplotlib.axis_2">
    <g id="ytick_1">
     <g id="line2d_15">
      <path d="M 65.947944 219.33188 
L 774.855 219.33188 
" clip-path="url(#p5d36e3f44f)" style="fill: none; stroke: #b0b0b0; stroke-opacity: 0.25; stroke-width: 0.8; stroke-linecap: square"/>
     </g>
     <g id="line2d_16">
      <defs>
       <path id="mae295aabc8" d="M 0 0 
L -3.5 0 
" style="stroke: #000000; stroke-width: 0.8"/>
      </defs>
      <g>
       <use xlink:href="#mae295aabc8" x="65.947944" y="219.33188" style="stroke: #000000; stroke-width: 0.8"/>
      </g>
     </g>
     <g id="text_1">
      <!-- $\mathdefault{−2}$ -->
      <g transform="translate(44.147944 223.131099) scale(0.1 -0.1)">
       <defs>
        <path id="DejaVuSans-2212" d="M 678 2272 
L 4684 2272 
L 4684 1741 
L 678 1741 
L 678 2272 
z
" transform="scale(0.015625)"/>
        <path id="DejaVuSans-32" d="M 1228 531 
L 3431 531 
L 3431 0 
L 469 0 
L 469 531 
Q 828 903 1448 1529 
Q 2069 2156 2228 2338 
Q 2531 2678 2651 2914 
Q 2772 3150 2772 3378 
Q 2772 3750 2511 3984 
Q 2250 4219 1831 4219 
Q 1534 4219 1204 4116 
Q 875 4013 500 3803 
L 500 4441 
Q 881 4594 1212 4672 
Q 1544 4750 1819 4750 
Q 2544 4750 2975 4387 
Q 3406 4025 3406 3419 
Q 3406 3131 3298 2873 
Q 3191 2616 2906 2266 
Q 2828 2175 2409 1742 
Q 1991 1309 1228 531 
z
" transform="scale(0.015625)"/>
       </defs>
       <use xlink:href="#DejaVuSans-2212" transform="translate(0 0.78125)"/>
       <use xlink:href="#DejaVuSans-32" transform="translate(83.789062 0.78125)"/>
      </g>
     </g>
    </g>
    <g id="ytick_2">
     <g id="line2d_17">
      <path d="M 65.947944 188.300673 
L 774.855 188.300673 
" clip-path="url(#p5d36e3f44f)" style="fill: none; stroke: #b0b0b0; stroke-opacity: 0.25; stroke-width: 0.8; stroke-linecap: square"/>
     </g>
     <g id="line2d_18">
      <g>
       <use xlink:href="#mae295aabc8" x="65.947944" y="188.300673" style="stroke: #000000; stroke-width: 0.8"/>
      </g>
     </g>
     <g id="text_2">
      <!-- $\mathdefault{−1}$ -->
      <g transform="translate(44.147944 192.099892) scale(0.1 -0.1)">
       <defs>
        <path id="DejaVuSans-31" d="M 794 531 
L 1825 531 
L 1825 4091 
L 703 3866 
L 703 4441 
L 1819 4666 
L 2450 4666 
L 2450 531 
L 3481 531 
L 3481 0 
L 794 0 
L 794 531 
z
" transform="scale(0.015625)"/>
       </defs>
       <use xlink:href="#DejaVuSans-2212" transform="translate(0 0.09375)"/>
       <use xlink:href="#DejaVuSans-31" transform="translate(83.789062 0.09375)"/>
      </g>
     </g>
    </g>
    <g id="ytick_3">
     <g id="line2d_19">
      <path d="M 65.947944 157.269466 
L 774.855 157.269466 
" clip-path="url(#p5d36e3f44f)" style="fill: none; stroke: #b0b0b0; stroke-opacity: 0.25; stroke-width: 0.8; stroke-linecap: square"/>
     </g>
     <g id="line2d_20">
      <g>
       <use xlink:href="#mae295aabc8" x="65.947944" y="157.269466" style="stroke: #000000; stroke-width: 0.8"/>
      </g>
     </g>
     <g id="text_3">
      <!-- $\mathdefault{0}$ -->
      <g transform="translate(52.547944 161.068684) scale(0.1 -0.1)">
       <defs>
        <path id="DejaVuSans-30" d="M 2034 4250 
Q 1547 4250 1301 3770 
Q 1056 3291 1056 2328 
Q 1056 1369 1301 889 
Q 1547 409 2034 409 
Q 2525 409 2770 889 
Q 3016 1369 3016 2328 
Q 3016 3291 2770 3770 
Q 2525 4250 2034 4250 
z
M 2034 4750 
Q 2819 4750 3233 4129 
Q 3647 3509 3647 2328 
Q 3647 1150 3233 529 
Q 2819 -91 2034 -91 
Q 1250 -91 836 529 
Q 422 1150 422 2328 
Q 422 3509 836 4129 
Q 1250 4750 2034 4750 
z
" transform="scale(0.015625)"/>
       </defs>
       <use xlink:href="#DejaVuSans-30" transform="translate(0 0.78125)"/>
      </g>
     </g>
    </g>
    <g id="ytick_4">
     <g id="line2d_21">
      <path d="M 65.947944 126.238258 
L 774.855 126.238258 
" clip-path="url(#p5d36e3f44f)" style="fill: none; stroke: #b0b0b0; stroke-opacity: 0.25; stroke-width: 0.8; stroke-linecap: square"/>
     </g>
     <g id="line2d_22">
      <g>
       <use xlink:href="#mae295aabc8" x="65.947944" y="126.238258" style="stroke: #000000; stroke-width: 0.8"/>
      </g>
     </g>
     <g id="text_4">
      <!-- $\mathdefault{1}$ -->
      <g transform="translate(52.547944 130.037477) scale(0.1 -0.1)">
       <use xlink:href="#DejaVuSans-31" transform="translate(0 0.09375)"/>
      </g>
     </g>
    </g>
    <g id="text_5">
     <!-- $\Delta u$ (ft/s) -->
     <g transform="translate(37.860288 186.6335) rotate(-90) scale(0.11 -0.11)">
      <defs>
       <path id="DejaVuSans-394" d="M 2188 4044 
L 906 525 
L 3472 525 
L 2188 4044 
z
M 50 0 
L 1831 4666 
L 2547 4666 
L 4325 0 
L 50 0 
z
" transform="scale(0.015625)"/>
       <path id="DejaVuSans-Oblique-75" d="M 428 1388 
L 838 3500 
L 1416 3500 
L 1006 1409 
Q 975 1256 961 1147 
Q 947 1038 947 966 
Q 947 700 1109 554 
Q 1272 409 1569 409 
Q 2031 409 2368 721 
Q 2706 1034 2809 1563 
L 3194 3500 
L 3769 3500 
L 3091 0 
L 2516 0 
L 2631 550 
Q 2388 244 2052 76 
Q 1716 -91 1338 -91 
Q 878 -91 622 161 
Q 366 413 366 863 
Q 366 956 381 1097 
Q 397 1238 428 1388 
z
" transform="scale(0.015625)"/>
       <path id="DejaVuSans-20" transform="scale(0.015625)"/>
       <path id="DejaVuSans-28" d="M 1984 4856 
Q 1566 4138 1362 3434 
Q 1159 2731 1159 2009 
Q 1159 1288 1364 580 
Q 1569 -128 1984 -844 
L 1484 -844 
Q 1016 -109 783 600 
Q 550 1309 550 2009 
Q 550 2706 781 3412 
Q 1013 4119 1484 4856 
L 1984 4856 
z
" transform="scale(0.015625)"/>
       <path id="DejaVuSans-66" d="M 2375 4863 
L 2375 4384 
L 1825 4384 
Q 1516 4384 1395 4259 
Q 1275 4134 1275 3809 
L 1275 3500 
L 2222 3500 
L 2222 3053 
L 1275 3053 
L 1275 0 
L 697 0 
L 697 3053 
L 147 3053 
L 147 3500 
L 697 3500 
L 697 3744 
Q 697 4328 969 4595 
Q 1241 4863 1831 4863 
L 2375 4863 
z
" transform="scale(0.015625)"/>
       <path id="DejaVuSans-74" d="M 1172 4494 
L 1172 3500 
L 2356 3500 
L 2356 3053 
L 1172 3053 
L 1172 1153 
Q 1172 725 1289 603 
Q 1406 481 1766 481 
L 2356 481 
L 2356 0 
L 1766 0 
Q 1100 0 847 248 
Q 594 497 594 1153 
L 594 3053 
L 172 3053 
L 172 3500 
L 594 3500 
L 594 4494 
L 1172 4494 
z
" transform="scale(0.015625)"/>
       <path id="DejaVuSans-2f" d="M 1625 4666 
L 2156 4666 
L 531 -594 
L 0 -594 
L 1625 4666 
z
" transform="scale(0.015625)"/>
       <path id="DejaVuSans-73" d="M 2834 3397 
L 2834 2853 
Q 2591 2978 2328 3040 
Q 2066 3103 1784 3103 
Q 1356 3103 1142 2972 
Q 928 2841 928 2578 
Q 928 2378 1081 2264 
Q 1234 2150 1697 2047 
L 1894 2003 
Q 2506 1872 2764 1633 
Q 3022 1394 3022 966 
Q 3022 478 2636 193 
Q 2250 -91 1575 -91 
Q 1294 -91 989 -36 
Q 684 19 347 128 
L 347 722 
Q 666 556 975 473 
Q 1284 391 1588 391 
Q 1994 391 2212 530 
Q 2431 669 2431 922 
Q 2431 1156 2273 1281 
Q 2116 1406 1581 1522 
L 1381 1569 
Q 847 1681 609 1914 
Q 372 2147 372 2553 
Q 372 3047 722 3315 
Q 1072 3584 1716 3584 
Q 2034 3584 2315 3537 
Q 2597 3491 2834 3397 
z
" transform="scale(0.015625)"/>
       <path id="DejaVuSans-29" d="M 513 4856 
L 1013 4856 
Q 1481 4119 1714 3412 
Q 1947 2706 1947 2009 
Q 1947 1309 1714 600 
Q 1481 -109 1013 -844 
L 513 -844 
Q 928 -128 1133 580 
Q 1338 1288 1338 2009 
Q 1338 2731 1133 3434 
Q 928 4138 513 4856 
z
" transform="scale(0.015625)"/>
      </defs>
      <use xlink:href="#DejaVuSans-394" transform="translate(0 0.015625)"/>
      <use xlink:href="#DejaVuSans-Oblique-75" transform="translate(68.408203 0.015625)"/>
      <use xlink:href="#DejaVuSans-20" transform="translate(131.787109 0.015625)"/>
      <use xlink:href="#DejaVuSans-28" transform="translate(163.574219 0.015625)"/>
      <use xlink:href="#DejaVuSans-66" transform="translate(202.587891 0.015625)"/>
      <use xlink:href="#DejaVuSans-74" transform="translate(237.792969 0.015625)"/>
      <use xlink:href="#DejaVuSans-2f" transform="translate(277.001953 0.015625)"/>
      <use xlink:href="#DejaVuSans-73" transform="translate(310.693359 0.015625)"/>
      <use xlink:href="#DejaVuSans-29" transform="translate(362.792969 0.015625)"/>
     </g>
    </g>
   </g>
   <g id="line2d_23">
    <path d="M 65.947944 157.269466 
L 66.5387 157.365739 
L 67.247607 157.710867 
L 68.074666 158.376208 
L 69.138026 159.550666 
L 70.55584 161.48861 
L 73.155166 165.515483 
L 76.817853 171.09186 
L 79.653481 174.985348 
L 82.961714 179.12785 
L 87.333307 184.217385 
L 92.768261 190.202661 
L 97.730611 195.355177 
L 102.220355 199.70805 
L 106.473798 203.527044 
L 110.490938 206.842801 
L 114.389926 209.777699 
L 118.170764 212.346848 
L 121.833451 214.567485 
L 125.377986 216.458648 
L 128.80437 218.040834 
L 132.230754 219.377574 
L 135.538987 220.432828 
L 138.84722 221.255267 
L 142.155453 221.8442 
L 145.345535 222.191077 
L 148.535616 222.321803 
L 151.843849 222.230724 
L 155.152082 221.911369 
L 158.460315 221.367028 
L 161.768548 220.601758 
L 165.194932 219.581373 
L 168.739467 218.28837 
L 172.402154 216.706697 
L 176.182991 214.822133 
L 180.08198 212.622702 
L 184.09912 210.099092 
L 188.352563 207.159915 
L 192.842307 203.78162 
L 197.686506 199.847865 
L 202.885157 195.330574 
L 208.556414 190.103876 
L 215.054728 183.805952 
L 223.089008 175.694493 
L 252.981256 145.193061 
L 259.479571 139.065278 
L 265.268978 133.907063 
L 270.585781 129.465355 
L 275.54813 125.60781 
L 280.274177 122.217501 
L 284.763922 119.272069 
L 289.017365 116.743633 
L 293.152656 114.541071 
L 297.169796 112.651547 
L 301.068784 111.060007 
L 304.849622 109.749652 
L 308.63046 108.672259 
L 312.411297 107.830266 
L 316.073984 107.240323 
L 319.73667 106.872762 
L 323.399357 106.726836 
L 327.062043 106.800848 
L 330.72473 107.092169 
L 334.505567 107.617063 
L 338.286405 108.364849 
L 342.185394 109.363246 
L 346.202534 110.625404 
L 350.337825 112.162517 
L 354.591267 113.983441 
L 359.081012 116.154564 
L 363.688908 118.630843 
L 368.651257 121.555533 
L 373.96806 124.955976 
L 379.757468 128.932345 
L 386.137631 133.58941 
L 393.699306 139.393825 
L 404.09661 147.681212 
L 422.646345 162.489151 
L 430.444322 168.402888 
L 437.060788 173.151858 
L 443.086498 177.206395 
L 448.639603 180.676411 
L 453.838255 183.665501 
L 458.800604 186.263739 
L 463.526651 188.490824 
L 468.134547 190.417426 
L 472.624292 192.05253 
L 476.995885 193.407745 
L 481.249328 194.49681 
L 485.50277 195.355873 
L 489.638061 195.968468 
L 493.773352 196.360804 
L 497.908644 196.533333 
L 502.043935 196.487707 
L 506.297377 196.216182 
L 510.550819 195.72122 
L 514.922413 194.985581 
L 519.412158 193.998336 
L 524.020053 192.750765 
L 528.746101 191.236728 
L 533.70845 189.406758 
L 538.907102 187.245028 
L 544.342056 184.7415 
L 550.249615 181.769768 
L 556.747929 178.243414 
L 564.073302 174.009057 
L 573.289094 168.409021 
L 604.126551 149.444369 
L 611.570075 145.256553 
L 618.186541 141.785465 
L 624.212251 138.869294 
L 629.883507 136.365834 
L 635.318461 134.207038 
L 640.517113 132.378015 
L 645.597614 130.825581 
L 650.559963 129.542721 
L 655.404161 128.51961 
L 660.130208 127.744113 
L 664.856255 127.191153 
L 669.582302 126.86169 
L 674.308349 126.755068 
L 679.034396 126.869037 
L 683.878595 127.210798 
L 688.722793 127.774581 
L 693.685142 128.574651 
L 698.765643 129.617201 
L 704.082446 130.937407 
L 709.635551 132.549868 
L 715.424959 134.463968 
L 721.686971 136.774056 
L 728.421588 139.499033 
L 736.101414 142.855064 
L 745.317206 147.138024 
L 760.204254 154.345169 
L 774.500546 161.179982 
L 774.855 161.344449 
L 774.855 161.344449 
" clip-path="url(#p5d36e3f44f)" style="fill: none; stroke: #2563eb; stroke-width: 1.5; stroke-linecap: square"/>
   </g>
   <g id="patch_3">
    <path d="M 65.947944 228.103 
L 65.947944 100.944 
" style="fill: none; stroke: #000000; stroke-width: 0.8; stroke-linejoin: miter; stroke-linecap: square"/>
   </g>
   <g id="patch_4">
    <path d="M 774.855 228.103 
L 774.855 100.944 
" style="fill: none; stroke: #000000; stroke-width: 0.8; stroke-linejoin: miter; stroke-linecap: square"/>
   </g>
   <g id="patch_5">
    <path d="M 65.947944 228.103 
L 774.855 228.103 
" style="fill: none; stroke: #000000; stroke-width: 0.8; stroke-linejoin: miter; stroke-linecap: square"/>
   </g>
   <g id="patch_6">
    <path d="M 65.947944 100.944 
L 774.855 100.944 
" style="fill: none; stroke: #000000; stroke-width: 0.8; stroke-linejoin: miter; stroke-linecap: square"/>
   </g>
  </g>
  <g id="axes_2">
   <g id="patch_7">
    <path d="M 65.947944 369.562 
L 774.855 369.562 
L 774.855 242.403 
L 65.947944 242.403 
z
" style="fill: #ffffff"/>
   </g>
   <g id="matplotlib.axis_3">
    <g id="xtick_8">
     <g id="line2d_24">
      <path d="M 65.947944 369.562 
L 65.947944 242.403 
" clip-path="url(#p6e13b964ec)" style="fill: none; stroke: #b0b0b0; stroke-opacity: 0.25; stroke-width: 0.8; stroke-linecap: square"/>
     </g>
     <g id="line2d_25">
      <g>
       <use xlink:href="#m8d8b3a6c82" x="65.947944" y="369.562" style="stroke: #000000; stroke-width: 0.8"/>
      </g>
     </g>
    </g>
    <g id="xtick_9">
     <g id="line2d_26">
      <path d="M 184.09912 369.562 
L 184.09912 242.403 
" clip-path="url(#p6e13b964ec)" style="fill: none; stroke: #b0b0b0; stroke-opacity: 0.25; stroke-width: 0.8; stroke-linecap: square"/>
     </g>
     <g id="line2d_27">
      <g>
       <use xlink:href="#m8d8b3a6c82" x="184.09912" y="369.562" style="stroke: #000000; stroke-width: 0.8"/>
      </g>
     </g>
    </g>
    <g id="xtick_10">
     <g id="line2d_28">
      <path d="M 302.250296 369.562 
L 302.250296 242.403 
" clip-path="url(#p6e13b964ec)" style="fill: none; stroke: #b0b0b0; stroke-opacity: 0.25; stroke-width: 0.8; stroke-linecap: square"/>
     </g>
     <g id="line2d_29">
      <g>
       <use xlink:href="#m8d8b3a6c82" x="302.250296" y="369.562" style="stroke: #000000; stroke-width: 0.8"/>
      </g>
     </g>
    </g>
    <g id="xtick_11">
     <g id="line2d_30">
      <path d="M 420.401472 369.562 
L 420.401472 242.403 
" clip-path="url(#p6e13b964ec)" style="fill: none; stroke: #b0b0b0; stroke-opacity: 0.25; stroke-width: 0.8; stroke-linecap: square"/>
     </g>
     <g id="line2d_31">
      <g>
       <use xlink:href="#m8d8b3a6c82" x="420.401472" y="369.562" style="stroke: #000000; stroke-width: 0.8"/>
      </g>
     </g>
    </g>
    <g id="xtick_12">
     <g id="line2d_32">
      <path d="M 538.552648 369.562 
L 538.552648 242.403 
" clip-path="url(#p6e13b964ec)" style="fill: none; stroke: #b0b0b0; stroke-opacity: 0.25; stroke-width: 0.8; stroke-linecap: square"/>
     </g>
     <g id="line2d_33">
      <g>
       <use xlink:href="#m8d8b3a6c82" x="538.552648" y="369.562" style="stroke: #000000; stroke-width: 0.8"/>
      </g>
     </g>
    </g>
    <g id="xtick_13">
     <g id="line2d_34">
      <path d="M 656.703824 369.562 
L 656.703824 242.403 
" clip-path="url(#p6e13b964ec)" style="fill: none; stroke: #b0b0b0; stroke-opacity: 0.25; stroke-width: 0.8; stroke-linecap: square"/>
     </g>
     <g id="line2d_35">
      <g>
       <use xlink:href="#m8d8b3a6c82" x="656.703824" y="369.562" style="stroke: #000000; stroke-width: 0.8"/>
      </g>
     </g>
    </g>
    <g id="xtick_14">
     <g id="line2d_36">
      <path d="M 774.855 369.562 
L 774.855 242.403 
" clip-path="url(#p6e13b964ec)" style="fill: none; stroke: #b0b0b0; stroke-opacity: 0.25; stroke-width: 0.8; stroke-linecap: square"/>
     </g>
     <g id="line2d_37">
      <g>
       <use xlink:href="#m8d8b3a6c82" x="774.855" y="369.562" style="stroke: #000000; stroke-width: 0.8"/>
      </g>
     </g>
    </g>
   </g>
   <g id="matplotlib.axis_4">
    <g id="ytick_5">
     <g id="line2d_38">
      <path d="M 65.947944 359.065934 
L 774.855 359.065934 
" clip-path="url(#p6e13b964ec)" style="fill: none; stroke: #b0b0b0; stroke-opacity: 0.25; stroke-width: 0.8; stroke-linecap: square"/>
     </g>
     <g id="line2d_39">
      <g>
       <use xlink:href="#mae295aabc8" x="65.947944" y="359.065934" style="stroke: #000000; stroke-width: 0.8"/>
      </g>
     </g>
     <g id="text_6">
      <!-- $\mathdefault{0.0}$ -->
      <g transform="translate(42.947944 362.865152) scale(0.1 -0.1)">
       <defs>
        <path id="DejaVuSans-2e" d="M 684 794 
L 1344 794 
L 1344 0 
L 684 0 
L 684 794 
z
" transform="scale(0.015625)"/>
       </defs>
       <use xlink:href="#DejaVuSans-30" transform="translate(0 0.78125)"/>
       <use xlink:href="#DejaVuSans-2e" transform="translate(63.623047 0.78125)"/>
       <use xlink:href="#DejaVuSans-30" transform="translate(95.410156 0.78125)"/>
      </g>
     </g>
    </g>
    <g id="ytick_6">
     <g id="line2d_40">
      <path d="M 65.947944 334.436614 
L 774.855 334.436614 
" clip-path="url(#p6e13b964ec)" style="fill: none; stroke: #b0b0b0; stroke-opacity: 0.25; stroke-width: 0.8; stroke-linecap: square"/>
     </g>
     <g id="line2d_41">
      <g>
       <use xlink:href="#mae295aabc8" x="65.947944" y="334.436614" style="stroke: #000000; stroke-width: 0.8"/>
      </g>
     </g>
     <g id="text_7">
      <!-- $\mathdefault{0.5}$ -->
      <g transform="translate(42.947944 338.235832) scale(0.1 -0.1)">
       <defs>
        <path id="DejaVuSans-35" d="M 691 4666 
L 3169 4666 
L 3169 4134 
L 1269 4134 
L 1269 2991 
Q 1406 3038 1543 3061 
Q 1681 3084 1819 3084 
Q 2600 3084 3056 2656 
Q 3513 2228 3513 1497 
Q 3513 744 3044 326 
Q 2575 -91 1722 -91 
Q 1428 -91 1123 -41 
Q 819 9 494 109 
L 494 744 
Q 775 591 1075 516 
Q 1375 441 1709 441 
Q 2250 441 2565 725 
Q 2881 1009 2881 1497 
Q 2881 1984 2565 2268 
Q 2250 2553 1709 2553 
Q 1456 2553 1204 2497 
Q 953 2441 691 2322 
L 691 4666 
z
" transform="scale(0.015625)"/>
       </defs>
       <use xlink:href="#DejaVuSans-30" transform="translate(0 0.78125)"/>
       <use xlink:href="#DejaVuSans-2e" transform="translate(63.623047 0.78125)"/>
       <use xlink:href="#DejaVuSans-35" transform="translate(95.410156 0.78125)"/>
      </g>
     </g>
    </g>
    <g id="ytick_7">
     <g id="line2d_42">
      <path d="M 65.947944 309.807294 
L 774.855 309.807294 
" clip-path="url(#p6e13b964ec)" style="fill: none; stroke: #b0b0b0; stroke-opacity: 0.25; stroke-width: 0.8; stroke-linecap: square"/>
     </g>
     <g id="line2d_43">
      <g>
       <use xlink:href="#mae295aabc8" x="65.947944" y="309.807294" style="stroke: #000000; stroke-width: 0.8"/>
      </g>
     </g>
     <g id="text_8">
      <!-- $\mathdefault{1.0}$ -->
      <g transform="translate(42.947944 313.606513) scale(0.1 -0.1)">
       <use xlink:href="#DejaVuSans-31" transform="translate(0 0.78125)"/>
       <use xlink:href="#DejaVuSans-2e" transform="translate(63.623047 0.78125)"/>
       <use xlink:href="#DejaVuSans-30" transform="translate(95.410156 0.78125)"/>
      </g>
     </g>
    </g>
    <g id="ytick_8">
     <g id="line2d_44">
      <path d="M 65.947944 285.177974 
L 774.855 285.177974 
" clip-path="url(#p6e13b964ec)" style="fill: none; stroke: #b0b0b0; stroke-opacity: 0.25; stroke-width: 0.8; stroke-linecap: square"/>
     </g>
     <g id="line2d_45">
      <g>
       <use xlink:href="#mae295aabc8" x="65.947944" y="285.177974" style="stroke: #000000; stroke-width: 0.8"/>
      </g>
     </g>
     <g id="text_9">
      <!-- $\mathdefault{1.5}$ -->
      <g transform="translate(42.947944 288.977193) scale(0.1 -0.1)">
       <use xlink:href="#DejaVuSans-31" transform="translate(0 0.09375)"/>
       <use xlink:href="#DejaVuSans-2e" transform="translate(63.623047 0.09375)"/>
       <use xlink:href="#DejaVuSans-35" transform="translate(95.410156 0.09375)"/>
      </g>
     </g>
    </g>
    <g id="ytick_9">
     <g id="line2d_46">
      <path d="M 65.947944 260.548654 
L 774.855 260.548654 
" clip-path="url(#p6e13b964ec)" style="fill: none; stroke: #b0b0b0; stroke-opacity: 0.25; stroke-width: 0.8; stroke-linecap: square"/>
     </g>
     <g id="line2d_47">
      <g>
       <use xlink:href="#mae295aabc8" x="65.947944" y="260.548654" style="stroke: #000000; stroke-width: 0.8"/>
      </g>
     </g>
     <g id="text_10">
      <!-- $\mathdefault{2.0}$ -->
      <g transform="translate(42.947944 264.347873) scale(0.1 -0.1)">
       <use xlink:href="#DejaVuSans-32" transform="translate(0 0.78125)"/>
       <use xlink:href="#DejaVuSans-2e" transform="translate(63.623047 0.78125)"/>
       <use xlink:href="#DejaVuSans-30" transform="translate(95.410156 0.78125)"/>
      </g>
     </g>
    </g>
    <g id="text_11">
     <!-- $\Delta w$ (ft/s) -->
     <g transform="translate(36.660288 329.1375) rotate(-90) scale(0.11 -0.11)">
      <defs>
       <path id="DejaVuSans-Oblique-77" d="M 544 3500 
L 1113 3500 
L 1259 684 
L 2566 3500 
L 3231 3500 
L 3425 684 
L 4666 3500 
L 5241 3500 
L 3641 0 
L 2969 0 
L 2797 2900 
L 1459 0 
L 781 0 
L 544 3500 
z
" transform="scale(0.015625)"/>
      </defs>
      <use xlink:href="#DejaVuSans-394" transform="translate(0 0.015625)"/>
      <use xlink:href="#DejaVuSans-Oblique-77" transform="translate(68.408203 0.015625)"/>
      <use xlink:href="#DejaVuSans-20" transform="translate(150.195312 0.015625)"/>
      <use xlink:href="#DejaVuSans-28" transform="translate(181.982422 0.015625)"/>
      <use xlink:href="#DejaVuSans-66" transform="translate(220.996094 0.015625)"/>
      <use xlink:href="#DejaVuSans-74" transform="translate(256.201172 0.015625)"/>
      <use xlink:href="#DejaVuSans-2f" transform="translate(295.410156 0.015625)"/>
      <use xlink:href="#DejaVuSans-73" transform="translate(329.101562 0.015625)"/>
      <use xlink:href="#DejaVuSans-29" transform="translate(381.201172 0.015625)"/>
     </g>
    </g>
   </g>
   <g id="line2d_48">
    <path d="M 65.947944 359.065934 
L 66.656851 314.486516 
L 67.365758 283.266901 
L 67.956514 265.851013 
L 68.54727 254.949881 
L 69.019875 250.153414 
L 69.374328 248.48967 
L 69.610631 248.182955 
L 69.728782 248.247956 
L 69.965084 248.779128 
L 70.319538 250.477433 
L 70.792143 254.159261 
L 71.50105 261.981932 
L 72.56441 276.856413 
L 75.636341 321.506806 
L 76.817853 334.824065 
L 77.881213 344.240514 
L 78.826423 350.627999 
L 79.653481 354.824461 
L 80.480539 357.881328 
L 81.189446 359.722719 
L 81.898353 360.959354 
L 82.489109 361.60342 
L 83.079865 361.956959 
L 83.670621 362.072528 
L 84.379528 361.963942 
L 85.206586 361.587108 
L 86.388098 360.760458 
L 91.114145 357.142534 
L 92.65011 356.364328 
L 94.304227 355.779209 
L 96.194645 355.361604 
L 98.67582 355.069224 
L 103.520018 354.791269 
L 113.090264 354.188034 
L 124.432776 353.533165 
L 134.948231 353.157747 
L 145.581837 353.00068 
L 156.215443 353.066372 
L 167.203502 353.358682 
L 178.782317 353.893358 
L 191.306342 354.698633 
L 205.720785 355.855337 
L 225.21573 357.662358 
L 260.070326 360.912853 
L 275.311828 362.083867 
L 288.662911 362.888957 
L 301.068784 363.417203 
L 313.120204 363.709468 
L 325.171624 363.777884 
L 337.341195 363.624415 
L 350.101522 363.239684 
L 363.92521 362.596844 
L 379.875619 361.624986 
L 401.969889 360.033383 
L 436.942637 357.516929 
L 453.720104 356.550301 
L 468.489001 355.919174 
L 482.43084 355.545709 
L 496.018225 355.40381 
L 509.723761 355.48267 
L 524.020053 355.787981 
L 539.616009 356.346816 
L 558.047592 357.238983 
L 588.057991 358.955091 
L 615.587215 360.442205 
L 633.900647 361.208643 
L 650.205509 361.670262 
L 665.801465 361.888622 
L 681.279269 361.882218 
L 697.347829 361.651483 
L 714.952354 361.171283 
L 736.219565 360.356866 
L 774.855 358.635818 
L 774.855 358.635818 
" clip-path="url(#p6e13b964ec)" style="fill: none; stroke: #16836b; stroke-width: 1.5; stroke-linecap: square"/>
   </g>
   <g id="patch_8">
    <path d="M 65.947944 369.562 
L 65.947944 242.403 
" style="fill: none; stroke: #000000; stroke-width: 0.8; stroke-linejoin: miter; stroke-linecap: square"/>
   </g>
   <g id="patch_9">
    <path d="M 774.855 369.562 
L 774.855 242.403 
" style="fill: none; stroke: #000000; stroke-width: 0.8; stroke-linejoin: miter; stroke-linecap: square"/>
   </g>
   <g id="patch_10">
    <path d="M 65.947944 369.562 
L 774.855 369.562 
" style="fill: none; stroke: #000000; stroke-width: 0.8; stroke-linejoin: miter; stroke-linecap: square"/>
   </g>
   <g id="patch_11">
    <path d="M 65.947944 242.403 
L 774.855 242.403 
" style="fill: none; stroke: #000000; stroke-width: 0.8; stroke-linejoin: miter; stroke-linecap: square"/>
   </g>
  </g>
  <g id="axes_3">
   <g id="patch_12">
    <path d="M 65.947944 511.021 
L 774.855 511.021 
L 774.855 383.862 
L 65.947944 383.862 
z
" style="fill: #ffffff"/>
   </g>
   <g id="matplotlib.axis_5">
    <g id="xtick_15">
     <g id="line2d_49">
      <path d="M 65.947944 511.021 
L 65.947944 383.862 
" clip-path="url(#pc447f7192b)" style="fill: none; stroke: #b0b0b0; stroke-opacity: 0.25; stroke-width: 0.8; stroke-linecap: square"/>
     </g>
     <g id="line2d_50">
      <g>
       <use xlink:href="#m8d8b3a6c82" x="65.947944" y="511.021" style="stroke: #000000; stroke-width: 0.8"/>
      </g>
     </g>
    </g>
    <g id="xtick_16">
     <g id="line2d_51">
      <path d="M 184.09912 511.021 
L 184.09912 383.862 
" clip-path="url(#pc447f7192b)" style="fill: none; stroke: #b0b0b0; stroke-opacity: 0.25; stroke-width: 0.8; stroke-linecap: square"/>
     </g>
     <g id="line2d_52">
      <g>
       <use xlink:href="#m8d8b3a6c82" x="184.09912" y="511.021" style="stroke: #000000; stroke-width: 0.8"/>
      </g>
     </g>
    </g>
    <g id="xtick_17">
     <g id="line2d_53">
      <path d="M 302.250296 511.021 
L 302.250296 383.862 
" clip-path="url(#pc447f7192b)" style="fill: none; stroke: #b0b0b0; stroke-opacity: 0.25; stroke-width: 0.8; stroke-linecap: square"/>
     </g>
     <g id="line2d_54">
      <g>
       <use xlink:href="#m8d8b3a6c82" x="302.250296" y="511.021" style="stroke: #000000; stroke-width: 0.8"/>
      </g>
     </g>
    </g>
    <g id="xtick_18">
     <g id="line2d_55">
      <path d="M 420.401472 511.021 
L 420.401472 383.862 
" clip-path="url(#pc447f7192b)" style="fill: none; stroke: #b0b0b0; stroke-opacity: 0.25; stroke-width: 0.8; stroke-linecap: square"/>
     </g>
     <g id="line2d_56">
      <g>
       <use xlink:href="#m8d8b3a6c82" x="420.401472" y="511.021" style="stroke: #000000; stroke-width: 0.8"/>
      </g>
     </g>
    </g>
    <g id="xtick_19">
     <g id="line2d_57">
      <path d="M 538.552648 511.021 
L 538.552648 383.862 
" clip-path="url(#pc447f7192b)" style="fill: none; stroke: #b0b0b0; stroke-opacity: 0.25; stroke-width: 0.8; stroke-linecap: square"/>
     </g>
     <g id="line2d_58">
      <g>
       <use xlink:href="#m8d8b3a6c82" x="538.552648" y="511.021" style="stroke: #000000; stroke-width: 0.8"/>
      </g>
     </g>
    </g>
    <g id="xtick_20">
     <g id="line2d_59">
      <path d="M 656.703824 511.021 
L 656.703824 383.862 
" clip-path="url(#pc447f7192b)" style="fill: none; stroke: #b0b0b0; stroke-opacity: 0.25; stroke-width: 0.8; stroke-linecap: square"/>
     </g>
     <g id="line2d_60">
      <g>
       <use xlink:href="#m8d8b3a6c82" x="656.703824" y="511.021" style="stroke: #000000; stroke-width: 0.8"/>
      </g>
     </g>
    </g>
    <g id="xtick_21">
     <g id="line2d_61">
      <path d="M 774.855 511.021 
L 774.855 383.862 
" clip-path="url(#pc447f7192b)" style="fill: none; stroke: #b0b0b0; stroke-opacity: 0.25; stroke-width: 0.8; stroke-linecap: square"/>
     </g>
     <g id="line2d_62">
      <g>
       <use xlink:href="#m8d8b3a6c82" x="774.855" y="511.021" style="stroke: #000000; stroke-width: 0.8"/>
      </g>
     </g>
    </g>
   </g>
   <g id="matplotlib.axis_6">
    <g id="ytick_10">
     <g id="line2d_63">
      <path d="M 65.947944 495.568259 
L 774.855 495.568259 
" clip-path="url(#pc447f7192b)" style="fill: none; stroke: #b0b0b0; stroke-opacity: 0.25; stroke-width: 0.8; stroke-linecap: square"/>
     </g>
     <g id="line2d_64">
      <g>
       <use xlink:href="#mae295aabc8" x="65.947944" y="495.568259" style="stroke: #000000; stroke-width: 0.8"/>
      </g>
     </g>
     <g id="text_12">
      <!-- $\mathdefault{0.000}$ -->
      <g transform="translate(30.247944 499.367478) scale(0.1 -0.1)">
       <use xlink:href="#DejaVuSans-30" transform="translate(0 0.78125)"/>
       <use xlink:href="#DejaVuSans-2e" transform="translate(63.623047 0.78125)"/>
       <use xlink:href="#DejaVuSans-30" transform="translate(95.410156 0.78125)"/>
       <use xlink:href="#DejaVuSans-30" transform="translate(159.033203 0.78125)"/>
       <use xlink:href="#DejaVuSans-30" transform="translate(222.65625 0.78125)"/>
      </g>
     </g>
    </g>
    <g id="ytick_11">
     <g id="line2d_65">
      <path d="M 65.947944 469.086683 
L 774.855 469.086683 
" clip-path="url(#pc447f7192b)" style="fill: none; stroke: #b0b0b0; stroke-opacity: 0.25; stroke-width: 0.8; stroke-linecap: square"/>
     </g>
     <g id="line2d_66">
      <g>
       <use xlink:href="#mae295aabc8" x="65.947944" y="469.086683" style="stroke: #000000; stroke-width: 0.8"/>
      </g>
     </g>
     <g id="text_13">
      <!-- $\mathdefault{0.025}$ -->
      <g transform="translate(30.247944 472.885902) scale(0.1 -0.1)">
       <use xlink:href="#DejaVuSans-30" transform="translate(0 0.78125)"/>
       <use xlink:href="#DejaVuSans-2e" transform="translate(63.623047 0.78125)"/>
       <use xlink:href="#DejaVuSans-30" transform="translate(95.410156 0.78125)"/>
       <use xlink:href="#DejaVuSans-32" transform="translate(159.033203 0.78125)"/>
       <use xlink:href="#DejaVuSans-35" transform="translate(222.65625 0.78125)"/>
      </g>
     </g>
    </g>
    <g id="ytick_12">
     <g id="line2d_67">
      <path d="M 65.947944 442.605107 
L 774.855 442.605107 
" clip-path="url(#pc447f7192b)" style="fill: none; stroke: #b0b0b0; stroke-opacity: 0.25; stroke-width: 0.8; stroke-linecap: square"/>
     </g>
     <g id="line2d_68">
      <g>
       <use xlink:href="#mae295aabc8" x="65.947944" y="442.605107" style="stroke: #000000; stroke-width: 0.8"/>
      </g>
     </g>
     <g id="text_14">
      <!-- $\mathdefault{0.050}$ -->
      <g transform="translate(30.247944 446.404326) scale(0.1 -0.1)">
       <use xlink:href="#DejaVuSans-30" transform="translate(0 0.78125)"/>
       <use xlink:href="#DejaVuSans-2e" transform="translate(63.623047 0.78125)"/>
       <use xlink:href="#DejaVuSans-30" transform="translate(95.410156 0.78125)"/>
       <use xlink:href="#DejaVuSans-35" transform="translate(159.033203 0.78125)"/>
       <use xlink:href="#DejaVuSans-30" transform="translate(222.65625 0.78125)"/>
      </g>
     </g>
    </g>
    <g id="ytick_13">
     <g id="line2d_69">
      <path d="M 65.947944 416.123531 
L 774.855 416.123531 
" clip-path="url(#pc447f7192b)" style="fill: none; stroke: #b0b0b0; stroke-opacity: 0.25; stroke-width: 0.8; stroke-linecap: square"/>
     </g>
     <g id="line2d_70">
      <g>
       <use xlink:href="#mae295aabc8" x="65.947944" y="416.123531" style="stroke: #000000; stroke-width: 0.8"/>
      </g>
     </g>
     <g id="text_15">
      <!-- $\mathdefault{0.075}$ -->
      <g transform="translate(30.247944 419.922749) scale(0.1 -0.1)">
       <defs>
        <path id="DejaVuSans-37" d="M 525 4666 
L 3525 4666 
L 3525 4397 
L 1831 0 
L 1172 0 
L 2766 4134 
L 525 4134 
L 525 4666 
z
" transform="scale(0.015625)"/>
       </defs>
       <use xlink:href="#DejaVuSans-30" transform="translate(0 0.78125)"/>
       <use xlink:href="#DejaVuSans-2e" transform="translate(63.623047 0.78125)"/>
       <use xlink:href="#DejaVuSans-30" transform="translate(95.410156 0.78125)"/>
       <use xlink:href="#DejaVuSans-37" transform="translate(159.033203 0.78125)"/>
       <use xlink:href="#DejaVuSans-35" transform="translate(222.65625 0.78125)"/>
      </g>
     </g>
    </g>
    <g id="ytick_14">
     <g id="line2d_71">
      <path d="M 65.947944 389.641955 
L 774.855 389.641955 
" clip-path="url(#pc447f7192b)" style="fill: none; stroke: #b0b0b0; stroke-opacity: 0.25; stroke-width: 0.8; stroke-linecap: square"/>
     </g>
     <g id="line2d_72">
      <g>
       <use xlink:href="#mae295aabc8" x="65.947944" y="389.641955" style="stroke: #000000; stroke-width: 0.8"/>
      </g>
     </g>
     <g id="text_16">
      <!-- $\mathdefault{0.100}$ -->
      <g transform="translate(30.247944 393.441173) scale(0.1 -0.1)">
       <use xlink:href="#DejaVuSans-30" transform="translate(0 0.78125)"/>
       <use xlink:href="#DejaVuSans-2e" transform="translate(63.623047 0.78125)"/>
       <use xlink:href="#DejaVuSans-31" transform="translate(95.410156 0.78125)"/>
       <use xlink:href="#DejaVuSans-30" transform="translate(159.033203 0.78125)"/>
       <use xlink:href="#DejaVuSans-30" transform="translate(222.65625 0.78125)"/>
      </g>
     </g>
    </g>
    <g id="text_17">
     <!-- $\Delta q$ (rad/s) -->
     <g transform="translate(23.937944 474.6115) rotate(-90) scale(0.11 -0.11)">
      <defs>
       <path id="DejaVuSans-Oblique-71" d="M 2669 525 
Q 2438 222 2123 65 
Q 1809 -91 1428 -91 
Q 897 -91 595 267 
Q 294 625 294 1253 
Q 294 1759 480 2231 
Q 666 2703 1013 3078 
Q 1238 3322 1530 3453 
Q 1822 3584 2144 3584 
Q 2531 3584 2781 3431 
Q 3031 3278 3144 2969 
L 3244 3494 
L 3822 3494 
L 2888 -1319 
L 2309 -1319 
L 2669 525 
z
M 891 1338 
Q 891 875 1084 633 
Q 1278 391 1644 391 
Q 2188 391 2572 911 
Q 2956 1431 2956 2175 
Q 2956 2625 2757 2864 
Q 2559 3103 2188 3103 
Q 1916 3103 1684 2976 
Q 1453 2850 1281 2606 
Q 1100 2350 995 2006 
Q 891 1663 891 1338 
z
" transform="scale(0.015625)"/>
       <path id="DejaVuSans-72" d="M 2631 2963 
Q 2534 3019 2420 3045 
Q 2306 3072 2169 3072 
Q 1681 3072 1420 2755 
Q 1159 2438 1159 1844 
L 1159 0 
L 581 0 
L 581 3500 
L 1159 3500 
L 1159 2956 
Q 1341 3275 1631 3429 
Q 1922 3584 2338 3584 
Q 2397 3584 2469 3576 
Q 2541 3569 2628 3553 
L 2631 2963 
z
" transform="scale(0.015625)"/>
       <path id="DejaVuSans-61" d="M 2194 1759 
Q 1497 1759 1228 1600 
Q 959 1441 959 1056 
Q 959 750 1161 570 
Q 1363 391 1709 391 
Q 2188 391 2477 730 
Q 2766 1069 2766 1631 
L 2766 1759 
L 2194 1759 
z
M 3341 1997 
L 3341 0 
L 2766 0 
L 2766 531 
Q 2569 213 2275 61 
Q 1981 -91 1556 -91 
Q 1019 -91 701 211 
Q 384 513 384 1019 
Q 384 1609 779 1909 
Q 1175 2209 1959 2209 
L 2766 2209 
L 2766 2266 
Q 2766 2663 2505 2880 
Q 2244 3097 1772 3097 
Q 1472 3097 1187 3025 
Q 903 2953 641 2809 
L 641 3341 
Q 956 3463 1253 3523 
Q 1550 3584 1831 3584 
Q 2591 3584 2966 3190 
Q 3341 2797 3341 1997 
z
" transform="scale(0.015625)"/>
       <path id="DejaVuSans-64" d="M 2906 2969 
L 2906 4863 
L 3481 4863 
L 3481 0 
L 2906 0 
L 2906 525 
Q 2725 213 2448 61 
Q 2172 -91 1784 -91 
Q 1150 -91 751 415 
Q 353 922 353 1747 
Q 353 2572 751 3078 
Q 1150 3584 1784 3584 
Q 2172 3584 2448 3432 
Q 2725 3281 2906 2969 
z
M 947 1747 
Q 947 1113 1208 752 
Q 1469 391 1925 391 
Q 2381 391 2643 752 
Q 2906 1113 2906 1747 
Q 2906 2381 2643 2742 
Q 2381 3103 1925 3103 
Q 1469 3103 1208 2742 
Q 947 2381 947 1747 
z
" transform="scale(0.015625)"/>
      </defs>
      <use xlink:href="#DejaVuSans-394" transform="translate(0 0.015625)"/>
      <use xlink:href="#DejaVuSans-Oblique-71" transform="translate(68.408203 0.015625)"/>
      <use xlink:href="#DejaVuSans-20" transform="translate(131.884766 0.015625)"/>
      <use xlink:href="#DejaVuSans-28" transform="translate(163.671875 0.015625)"/>
      <use xlink:href="#DejaVuSans-72" transform="translate(202.685547 0.015625)"/>
      <use xlink:href="#DejaVuSans-61" transform="translate(243.798828 0.015625)"/>
      <use xlink:href="#DejaVuSans-64" transform="translate(305.078125 0.015625)"/>
      <use xlink:href="#DejaVuSans-2f" transform="translate(368.554688 0.015625)"/>
      <use xlink:href="#DejaVuSans-73" transform="translate(402.246094 0.015625)"/>
      <use xlink:href="#DejaVuSans-29" transform="translate(454.345703 0.015625)"/>
     </g>
    </g>
   </g>
   <g id="line2d_73">
    <path d="M 65.947944 389.641955 
L 67.48391 428.079524 
L 68.665421 452.519049 
L 69.728782 470.016579 
L 70.673991 482.04604 
L 71.50105 490.072321 
L 72.328108 496.037526 
L 73.037015 499.732882 
L 73.745922 502.32054 
L 74.336678 503.764926 
L 74.927434 504.67082 
L 75.400038 505.071643 
L 75.872643 505.233166 
L 76.345248 505.19642 
L 76.936004 504.928141 
L 77.763062 504.250853 
L 78.944574 502.93098 
L 82.016504 499.352073 
L 83.316167 498.212728 
L 84.61583 497.37696 
L 85.915493 496.824524 
L 87.215156 496.509804 
L 88.751121 496.369445 
L 90.759691 496.42841 
L 94.540529 496.824643 
L 99.857332 497.320526 
L 106.237495 497.656206 
L 123.723869 498.279526 
L 138.610918 498.598682 
L 153.379815 498.692398 
L 168.385014 498.563689 
L 184.335423 498.200507 
L 202.294401 497.561665 
L 225.688334 496.489508 
L 273.657712 494.242918 
L 292.798202 493.609625 
L 310.048274 493.258748 
L 326.825741 493.140422 
L 343.83951 493.245084 
L 362.034791 493.583999 
L 383.065701 494.206174 
L 415.911727 495.436029 
L 449.34851 496.615402 
L 470.852024 497.148794 
L 490.228817 497.408802 
L 509.251156 497.440663 
L 528.982403 497.248808 
L 551.194824 496.804277 
L 582.032281 495.941534 
L 627.520484 494.685015 
L 651.26887 494.267625 
L 673.008686 494.107432 
L 694.748503 494.171003 
L 718.496889 494.46839 
L 748.979892 495.089086 
L 774.855 495.68907 
L 774.855 495.68907 
" clip-path="url(#pc447f7192b)" style="fill: none; stroke: #dc6b25; stroke-width: 1.5; stroke-linecap: square"/>
   </g>
   <g id="patch_13">
    <path d="M 65.947944 511.021 
L 65.947944 383.862 
" style="fill: none; stroke: #000000; stroke-width: 0.8; stroke-linejoin: miter; stroke-linecap: square"/>
   </g>
   <g id="patch_14">
    <path d="M 774.855 511.021 
L 774.855 383.862 
" style="fill: none; stroke: #000000; stroke-width: 0.8; stroke-linejoin: miter; stroke-linecap: square"/>
   </g>
   <g id="patch_15">
    <path d="M 65.947944 511.021 
L 774.855 511.021 
" style="fill: none; stroke: #000000; stroke-width: 0.8; stroke-linejoin: miter; stroke-linecap: square"/>
   </g>
   <g id="patch_16">
    <path d="M 65.947944 383.862 
L 774.855 383.862 
" style="fill: none; stroke: #000000; stroke-width: 0.8; stroke-linejoin: miter; stroke-linecap: square"/>
   </g>
  </g>
  <g id="axes_4">
   <g id="patch_17">
    <path d="M 65.947944 652.48 
L 774.855 652.48 
L 774.855 525.321 
L 65.947944 525.321 
z
" style="fill: #ffffff"/>
   </g>
   <g id="matplotlib.axis_7">
    <g id="xtick_22">
     <g id="line2d_74">
      <path d="M 65.947944 652.48 
L 65.947944 525.321 
" clip-path="url(#pa529333881)" style="fill: none; stroke: #b0b0b0; stroke-opacity: 0.25; stroke-width: 0.8; stroke-linecap: square"/>
     </g>
     <g id="line2d_75">
      <g>
       <use xlink:href="#m8d8b3a6c82" x="65.947944" y="652.48" style="stroke: #000000; stroke-width: 0.8"/>
      </g>
     </g>
     <g id="text_18">
      <!-- 0 -->
      <g transform="translate(62.766694 667.078437) scale(0.1 -0.1)">
       <use xlink:href="#DejaVuSans-30"/>
      </g>
     </g>
    </g>
    <g id="xtick_23">
     <g id="line2d_76">
      <path d="M 184.09912 652.48 
L 184.09912 525.321 
" clip-path="url(#pa529333881)" style="fill: none; stroke: #b0b0b0; stroke-opacity: 0.25; stroke-width: 0.8; stroke-linecap: square"/>
     </g>
     <g id="line2d_77">
      <g>
       <use xlink:href="#m8d8b3a6c82" x="184.09912" y="652.48" style="stroke: #000000; stroke-width: 0.8"/>
      </g>
     </g>
     <g id="text_19">
      <!-- 10 -->
      <g transform="translate(177.73662 667.078437) scale(0.1 -0.1)">
       <use xlink:href="#DejaVuSans-31"/>
       <use xlink:href="#DejaVuSans-30" transform="translate(63.623047 0)"/>
      </g>
     </g>
    </g>
    <g id="xtick_24">
     <g id="line2d_78">
      <path d="M 302.250296 652.48 
L 302.250296 525.321 
" clip-path="url(#pa529333881)" style="fill: none; stroke: #b0b0b0; stroke-opacity: 0.25; stroke-width: 0.8; stroke-linecap: square"/>
     </g>
     <g id="line2d_79">
      <g>
       <use xlink:href="#m8d8b3a6c82" x="302.250296" y="652.48" style="stroke: #000000; stroke-width: 0.8"/>
      </g>
     </g>
     <g id="text_20">
      <!-- 20 -->
      <g transform="translate(295.887796 667.078437) scale(0.1 -0.1)">
       <use xlink:href="#DejaVuSans-32"/>
       <use xlink:href="#DejaVuSans-30" transform="translate(63.623047 0)"/>
      </g>
     </g>
    </g>
    <g id="xtick_25">
     <g id="line2d_80">
      <path d="M 420.401472 652.48 
L 420.401472 525.321 
" clip-path="url(#pa529333881)" style="fill: none; stroke: #b0b0b0; stroke-opacity: 0.25; stroke-width: 0.8; stroke-linecap: square"/>
     </g>
     <g id="line2d_81">
      <g>
       <use xlink:href="#m8d8b3a6c82" x="420.401472" y="652.48" style="stroke: #000000; stroke-width: 0.8"/>
      </g>
     </g>
     <g id="text_21">
      <!-- 30 -->
      <g transform="translate(414.038972 667.078437) scale(0.1 -0.1)">
       <defs>
        <path id="DejaVuSans-33" d="M 2597 2516 
Q 3050 2419 3304 2112 
Q 3559 1806 3559 1356 
Q 3559 666 3084 287 
Q 2609 -91 1734 -91 
Q 1441 -91 1130 -33 
Q 819 25 488 141 
L 488 750 
Q 750 597 1062 519 
Q 1375 441 1716 441 
Q 2309 441 2620 675 
Q 2931 909 2931 1356 
Q 2931 1769 2642 2001 
Q 2353 2234 1838 2234 
L 1294 2234 
L 1294 2753 
L 1863 2753 
Q 2328 2753 2575 2939 
Q 2822 3125 2822 3475 
Q 2822 3834 2567 4026 
Q 2313 4219 1838 4219 
Q 1578 4219 1281 4162 
Q 984 4106 628 3988 
L 628 4550 
Q 988 4650 1302 4700 
Q 1616 4750 1894 4750 
Q 2613 4750 3031 4423 
Q 3450 4097 3450 3541 
Q 3450 3153 3228 2886 
Q 3006 2619 2597 2516 
z
" transform="scale(0.015625)"/>
       </defs>
       <use xlink:href="#DejaVuSans-33"/>
       <use xlink:href="#DejaVuSans-30" transform="translate(63.623047 0)"/>
      </g>
     </g>
    </g>
    <g id="xtick_26">
     <g id="line2d_82">
      <path d="M 538.552648 652.48 
L 538.552648 525.321 
" clip-path="url(#pa529333881)" style="fill: none; stroke: #b0b0b0; stroke-opacity: 0.25; stroke-width: 0.8; stroke-linecap: square"/>
     </g>
     <g id="line2d_83">
      <g>
       <use xlink:href="#m8d8b3a6c82" x="538.552648" y="652.48" style="stroke: #000000; stroke-width: 0.8"/>
      </g>
     </g>
     <g id="text_22">
      <!-- 40 -->
      <g transform="translate(532.190148 667.078437) scale(0.1 -0.1)">
       <defs>
        <path id="DejaVuSans-34" d="M 2419 4116 
L 825 1625 
L 2419 1625 
L 2419 4116 
z
M 2253 4666 
L 3047 4666 
L 3047 1625 
L 3713 1625 
L 3713 1100 
L 3047 1100 
L 3047 0 
L 2419 0 
L 2419 1100 
L 313 1100 
L 313 1709 
L 2253 4666 
z
" transform="scale(0.015625)"/>
       </defs>
       <use xlink:href="#DejaVuSans-34"/>
       <use xlink:href="#DejaVuSans-30" transform="translate(63.623047 0)"/>
      </g>
     </g>
    </g>
    <g id="xtick_27">
     <g id="line2d_84">
      <path d="M 656.703824 652.48 
L 656.703824 525.321 
" clip-path="url(#pa529333881)" style="fill: none; stroke: #b0b0b0; stroke-opacity: 0.25; stroke-width: 0.8; stroke-linecap: square"/>
     </g>
     <g id="line2d_85">
      <g>
       <use xlink:href="#m8d8b3a6c82" x="656.703824" y="652.48" style="stroke: #000000; stroke-width: 0.8"/>
      </g>
     </g>
     <g id="text_23">
      <!-- 50 -->
      <g transform="translate(650.341324 667.078437) scale(0.1 -0.1)">
       <use xlink:href="#DejaVuSans-35"/>
       <use xlink:href="#DejaVuSans-30" transform="translate(63.623047 0)"/>
      </g>
     </g>
    </g>
    <g id="xtick_28">
     <g id="line2d_86">
      <path d="M 774.855 652.48 
L 774.855 525.321 
" clip-path="url(#pa529333881)" style="fill: none; stroke: #b0b0b0; stroke-opacity: 0.25; stroke-width: 0.8; stroke-linecap: square"/>
     </g>
     <g id="line2d_87">
      <g>
       <use xlink:href="#m8d8b3a6c82" x="774.855" y="652.48" style="stroke: #000000; stroke-width: 0.8"/>
      </g>
     </g>
     <g id="text_24">
      <!-- 60 -->
      <g transform="translate(768.4925 667.078437) scale(0.1 -0.1)">
       <defs>
        <path id="DejaVuSans-36" d="M 2113 2584 
Q 1688 2584 1439 2293 
Q 1191 2003 1191 1497 
Q 1191 994 1439 701 
Q 1688 409 2113 409 
Q 2538 409 2786 701 
Q 3034 994 3034 1497 
Q 3034 2003 2786 2293 
Q 2538 2584 2113 2584 
z
M 3366 4563 
L 3366 3988 
Q 3128 4100 2886 4159 
Q 2644 4219 2406 4219 
Q 1781 4219 1451 3797 
Q 1122 3375 1075 2522 
Q 1259 2794 1537 2939 
Q 1816 3084 2150 3084 
Q 2853 3084 3261 2657 
Q 3669 2231 3669 1497 
Q 3669 778 3244 343 
Q 2819 -91 2113 -91 
Q 1303 -91 875 529 
Q 447 1150 447 2328 
Q 447 3434 972 4092 
Q 1497 4750 2381 4750 
Q 2619 4750 2861 4703 
Q 3103 4656 3366 4563 
z
" transform="scale(0.015625)"/>
       </defs>
       <use xlink:href="#DejaVuSans-36"/>
       <use xlink:href="#DejaVuSans-30" transform="translate(63.623047 0)"/>
      </g>
     </g>
    </g>
    <g id="text_25">
     <!-- Thời gian (s) -->
     <g transform="translate(389.24991 681.156562) scale(0.1 -0.1)">
      <defs>
       <path id="DejaVuSans-54" d="M -19 4666 
L 3928 4666 
L 3928 4134 
L 2272 4134 
L 2272 0 
L 1638 0 
L 1638 4134 
L -19 4134 
L -19 4666 
z
" transform="scale(0.015625)"/>
       <path id="DejaVuSans-68" d="M 3513 2113 
L 3513 0 
L 2938 0 
L 2938 2094 
Q 2938 2591 2744 2837 
Q 2550 3084 2163 3084 
Q 1697 3084 1428 2787 
Q 1159 2491 1159 1978 
L 1159 0 
L 581 0 
L 581 4863 
L 1159 4863 
L 1159 2956 
Q 1366 3272 1645 3428 
Q 1925 3584 2291 3584 
Q 2894 3584 3203 3211 
Q 3513 2838 3513 2113 
z
" transform="scale(0.015625)"/>
       <path id="DejaVuSans-1edd" d="M 1507 5119 
L 2388 3950 
L 1910 3950 
L 891 5119 
L 1507 5119 
z
M 2622 3136 
L 2622 3508 
Q 2813 3367 2950 3300 
Q 3088 3233 3185 3233 
Q 3328 3233 3400 3319 
Q 3472 3405 3472 3573 
Q 3472 3673 3448 3770 
Q 3425 3867 3378 3964 
L 3794 3964 
Q 3825 3845 3840 3739 
Q 3856 3633 3856 3539 
Q 3856 3158 3720 2978 
Q 3585 2798 3294 2798 
Q 3144 2798 2980 2881 
Q 2816 2964 2622 3136 
z
M 1975 3097 
Q 1513 3097 1244 2736 
Q 975 2375 975 1747 
Q 975 1119 1242 758 
Q 1510 397 1975 397 
Q 2435 397 2703 759 
Q 2972 1122 2972 1747 
Q 2972 2369 2703 2733 
Q 2435 3097 1975 3097 
z
M 1975 3584 
Q 2725 3584 3153 3096 
Q 3582 2609 3582 1747 
Q 3582 888 3153 398 
Q 2725 -91 1975 -91 
Q 1222 -91 795 398 
Q 369 888 369 1747 
Q 369 2609 795 3096 
Q 1222 3584 1975 3584 
z
" transform="scale(0.015625)"/>
       <path id="DejaVuSans-69" d="M 603 3500 
L 1178 3500 
L 1178 0 
L 603 0 
L 603 3500 
z
M 603 4863 
L 1178 4863 
L 1178 4134 
L 603 4134 
L 603 4863 
z
" transform="scale(0.015625)"/>
       <path id="DejaVuSans-67" d="M 2906 1791 
Q 2906 2416 2648 2759 
Q 2391 3103 1925 3103 
Q 1463 3103 1205 2759 
Q 947 2416 947 1791 
Q 947 1169 1205 825 
Q 1463 481 1925 481 
Q 2391 481 2648 825 
Q 2906 1169 2906 1791 
z
M 3481 434 
Q 3481 -459 3084 -895 
Q 2688 -1331 1869 -1331 
Q 1566 -1331 1297 -1286 
Q 1028 -1241 775 -1147 
L 775 -588 
Q 1028 -725 1275 -790 
Q 1522 -856 1778 -856 
Q 2344 -856 2625 -561 
Q 2906 -266 2906 331 
L 2906 616 
Q 2728 306 2450 153 
Q 2172 0 1784 0 
Q 1141 0 747 490 
Q 353 981 353 1791 
Q 353 2603 747 3093 
Q 1141 3584 1784 3584 
Q 2172 3584 2450 3431 
Q 2728 3278 2906 2969 
L 2906 3500 
L 3481 3500 
L 3481 434 
z
" transform="scale(0.015625)"/>
       <path id="DejaVuSans-6e" d="M 3513 2113 
L 3513 0 
L 2938 0 
L 2938 2094 
Q 2938 2591 2744 2837 
Q 2550 3084 2163 3084 
Q 1697 3084 1428 2787 
Q 1159 2491 1159 1978 
L 1159 0 
L 581 0 
L 581 3500 
L 1159 3500 
L 1159 2956 
Q 1366 3272 1645 3428 
Q 1925 3584 2291 3584 
Q 2894 3584 3203 3211 
Q 3513 2838 3513 2113 
z
" transform="scale(0.015625)"/>
      </defs>
      <use xlink:href="#DejaVuSans-54"/>
      <use xlink:href="#DejaVuSans-68" transform="translate(61.083984 0)"/>
      <use xlink:href="#DejaVuSans-1edd" transform="translate(124.462891 0)"/>
      <use xlink:href="#DejaVuSans-69" transform="translate(185.644531 0)"/>
      <use xlink:href="#DejaVuSans-20" transform="translate(213.427734 0)"/>
      <use xlink:href="#DejaVuSans-67" transform="translate(245.214844 0)"/>
      <use xlink:href="#DejaVuSans-69" transform="translate(308.691406 0)"/>
      <use xlink:href="#DejaVuSans-61" transform="translate(336.474609 0)"/>
      <use xlink:href="#DejaVuSans-6e" transform="translate(397.753906 0)"/>
      <use xlink:href="#DejaVuSans-20" transform="translate(461.132812 0)"/>
      <use xlink:href="#DejaVuSans-28" transform="translate(492.919922 0)"/>
      <use xlink:href="#DejaVuSans-73" transform="translate(531.933594 0)"/>
      <use xlink:href="#DejaVuSans-29" transform="translate(584.033203 0)"/>
     </g>
    </g>
   </g>
   <g id="matplotlib.axis_8">
    <g id="ytick_15">
     <g id="line2d_88">
      <path d="M 65.947944 639.173534 
L 774.855 639.173534 
" clip-path="url(#pa529333881)" style="fill: none; stroke: #b0b0b0; stroke-opacity: 0.25; stroke-width: 0.8; stroke-linecap: square"/>
     </g>
     <g id="line2d_89">
      <g>
       <use xlink:href="#mae295aabc8" x="65.947944" y="639.173534" style="stroke: #000000; stroke-width: 0.8"/>
      </g>
     </g>
     <g id="text_26">
      <!-- $\mathdefault{−0.01}$ -->
      <g transform="translate(28.247944 642.972752) scale(0.1 -0.1)">
       <use xlink:href="#DejaVuSans-2212" transform="translate(0 0.78125)"/>
       <use xlink:href="#DejaVuSans-30" transform="translate(83.789062 0.78125)"/>
       <use xlink:href="#DejaVuSans-2e" transform="translate(147.412109 0.78125)"/>
       <use xlink:href="#DejaVuSans-30" transform="translate(179.199219 0.78125)"/>
       <use xlink:href="#DejaVuSans-31" transform="translate(242.822266 0.78125)"/>
      </g>
     </g>
    </g>
    <g id="ytick_16">
     <g id="line2d_90">
      <path d="M 65.947944 604.162045 
L 774.855 604.162045 
" clip-path="url(#pa529333881)" style="fill: none; stroke: #b0b0b0; stroke-opacity: 0.25; stroke-width: 0.8; stroke-linecap: square"/>
     </g>
     <g id="line2d_91">
      <g>
       <use xlink:href="#mae295aabc8" x="65.947944" y="604.162045" style="stroke: #000000; stroke-width: 0.8"/>
      </g>
     </g>
     <g id="text_27">
      <!-- $\mathdefault{0.00}$ -->
      <g transform="translate(36.647944 607.961264) scale(0.1 -0.1)">
       <use xlink:href="#DejaVuSans-30" transform="translate(0 0.78125)"/>
       <use xlink:href="#DejaVuSans-2e" transform="translate(63.623047 0.78125)"/>
       <use xlink:href="#DejaVuSans-30" transform="translate(95.410156 0.78125)"/>
       <use xlink:href="#DejaVuSans-30" transform="translate(159.033203 0.78125)"/>
      </g>
     </g>
    </g>
    <g id="ytick_17">
     <g id="line2d_92">
      <path d="M 65.947944 569.150556 
L 774.855 569.150556 
" clip-path="url(#pa529333881)" style="fill: none; stroke: #b0b0b0; stroke-opacity: 0.25; stroke-width: 0.8; stroke-linecap: square"/>
     </g>
     <g id="line2d_93">
      <g>
       <use xlink:href="#mae295aabc8" x="65.947944" y="569.150556" style="stroke: #000000; stroke-width: 0.8"/>
      </g>
     </g>
     <g id="text_28">
      <!-- $\mathdefault{0.01}$ -->
      <g transform="translate(36.647944 572.949775) scale(0.1 -0.1)">
       <use xlink:href="#DejaVuSans-30" transform="translate(0 0.78125)"/>
       <use xlink:href="#DejaVuSans-2e" transform="translate(63.623047 0.78125)"/>
       <use xlink:href="#DejaVuSans-30" transform="translate(95.410156 0.78125)"/>
       <use xlink:href="#DejaVuSans-31" transform="translate(159.033203 0.78125)"/>
      </g>
     </g>
    </g>
    <g id="ytick_18">
     <g id="line2d_94">
      <path d="M 65.947944 534.139068 
L 774.855 534.139068 
" clip-path="url(#pa529333881)" style="fill: none; stroke: #b0b0b0; stroke-opacity: 0.25; stroke-width: 0.8; stroke-linecap: square"/>
     </g>
     <g id="line2d_95">
      <g>
       <use xlink:href="#mae295aabc8" x="65.947944" y="534.139068" style="stroke: #000000; stroke-width: 0.8"/>
      </g>
     </g>
     <g id="text_29">
      <!-- $\mathdefault{0.02}$ -->
      <g transform="translate(36.647944 537.938286) scale(0.1 -0.1)">
       <use xlink:href="#DejaVuSans-30" transform="translate(0 0.78125)"/>
       <use xlink:href="#DejaVuSans-2e" transform="translate(63.623047 0.78125)"/>
       <use xlink:href="#DejaVuSans-30" transform="translate(95.410156 0.78125)"/>
       <use xlink:href="#DejaVuSans-32" transform="translate(159.033203 0.78125)"/>
      </g>
     </g>
    </g>
    <g id="text_30">
     <!-- $\Delta\theta$ (rad) -->
     <g transform="translate(21.960288 611.2305) rotate(-90) scale(0.11 -0.11)">
      <defs>
       <path id="DejaVuSans-Oblique-3b8" d="M 2913 2219 
L 925 2219 
Q 791 1284 928 888 
Q 1100 400 1566 400 
Q 2034 400 2391 891 
Q 2703 1322 2913 2219 
z
M 3009 2750 
Q 3094 3638 2984 3950 
Q 2813 4444 2353 4444 
Q 1875 4444 1525 3956 
Q 1250 3563 1034 2750 
L 3009 2750 
z
M 2444 4913 
Q 3194 4913 3494 4250 
Q 3794 3591 3566 2422 
Q 3341 1256 2781 594 
Q 2225 -72 1475 -72 
Q 722 -72 425 594 
Q 128 1256 353 2422 
Q 581 3591 1134 4250 
Q 1691 4913 2444 4913 
z
" transform="scale(0.015625)"/>
      </defs>
      <use xlink:href="#DejaVuSans-394" transform="translate(0 0.234375)"/>
      <use xlink:href="#DejaVuSans-Oblique-3b8" transform="translate(68.408203 0.234375)"/>
      <use xlink:href="#DejaVuSans-20" transform="translate(129.589844 0.234375)"/>
      <use xlink:href="#DejaVuSans-28" transform="translate(161.376953 0.234375)"/>
      <use xlink:href="#DejaVuSans-72" transform="translate(200.390625 0.234375)"/>
      <use xlink:href="#DejaVuSans-61" transform="translate(241.503906 0.234375)"/>
      <use xlink:href="#DejaVuSans-64" transform="translate(302.783203 0.234375)"/>
      <use xlink:href="#DejaVuSans-29" transform="translate(366.259766 0.234375)"/>
     </g>
    </g>
   </g>
   <g id="line2d_96">
    <path d="M 65.947944 604.162045 
L 66.893154 579.4237 
L 67.720212 562.84046 
L 68.54727 550.458199 
L 69.256177 542.749987 
L 69.965084 537.32352 
L 70.55584 534.275408 
L 71.146596 532.347891 
L 71.619201 531.483445 
L 71.973654 531.170227 
L 72.328108 531.104386 
L 72.682561 531.252561 
L 73.155166 531.7298 
L 73.745922 532.682997 
L 74.57298 534.482587 
L 76.108945 538.504216 
L 78.117515 543.650206 
L 79.417178 546.401526 
L 80.59869 548.403023 
L 81.662051 549.809875 
L 82.725411 550.88643 
L 83.906923 551.763993 
L 85.206586 552.43742 
L 86.742551 552.974925 
L 89.341877 553.603691 
L 93.004564 554.534075 
L 95.722041 555.473188 
L 98.67582 556.739052 
L 102.220355 558.512552 
L 106.473798 560.8955 
L 111.317996 563.869693 
L 116.398496 567.256712 
L 121.715299 571.072119 
L 127.622858 575.594896 
L 134.239324 580.947574 
L 142.391755 587.842956 
L 156.806199 600.394058 
L 168.03056 610.026712 
L 175.710387 616.327416 
L 182.208701 621.376077 
L 187.998109 625.600625 
L 193.433063 629.293749 
L 198.513564 632.479079 
L 203.357762 635.254691 
L 207.965658 637.641758 
L 212.455403 639.717523 
L 216.826996 641.491569 
L 221.080438 642.976102 
L 225.21573 644.185457 
L 229.351021 645.160194 
L 233.368161 645.879961 
L 237.385301 646.374719 
L 241.402441 646.644485 
L 245.419581 646.690448 
L 249.436721 646.514947 
L 253.453861 646.12144 
L 257.589152 645.493456 
L 261.842594 644.618028 
L 266.214188 643.484047 
L 270.703932 642.082633 
L 275.311828 640.407518 
L 280.156026 638.403747 
L 285.236527 636.054897 
L 290.55333 633.350487 
L 296.342737 630.152027 
L 302.722901 626.366242 
L 310.048274 621.750699 
L 319.264066 615.662537 
L 347.974801 596.496993 
L 355.418325 591.91199 
L 361.91664 588.163881 
L 367.94235 584.943075 
L 373.495455 582.221499 
L 378.812258 579.859517 
L 383.892759 577.842031 
L 388.855108 576.110439 
L 393.699306 574.657882 
L 398.425353 573.47461 
L 403.033249 572.548496 
L 407.641145 571.850474 
L 412.13089 571.391432 
L 416.620635 571.150782 
L 421.22853 571.129569 
L 425.836426 571.334201 
L 430.444322 571.760301 
L 435.170369 572.421267 
L 440.014567 573.325976 
L 444.976917 574.480856 
L 450.175569 575.924875 
L 455.492371 577.632971 
L 461.163628 579.691329 
L 467.189338 582.118004 
L 473.805804 585.028965 
L 481.249328 588.556577 
L 490.110666 593.013451 
L 503.816202 600.192535 
L 518.939553 608.047862 
L 527.800891 612.398588 
L 535.244415 615.812881 
L 541.979032 618.662973 
L 548.241045 621.075543 
L 554.148603 623.117435 
L 559.81986 624.845721 
L 565.372965 626.304003 
L 570.689768 627.473212 
L 576.006571 628.412968 
L 581.205223 629.105128 
L 586.403874 629.570415 
L 591.602526 629.808161 
L 596.801178 629.819686 
L 601.99983 629.608254 
L 607.316633 629.166782 
L 612.751587 628.487831 
L 618.304692 627.566759 
L 624.094099 626.375539 
L 630.119809 624.903105 
L 636.499973 623.108834 
L 643.352741 620.943447 
L 650.796265 618.354613 
L 659.421301 615.112372 
L 670.527512 610.683658 
L 698.647492 599.364168 
L 707.50883 596.101506 
L 715.306807 593.46319 
L 722.395878 591.295035 
L 729.130495 589.467272 
L 735.510658 587.964792 
L 741.65452 586.743476 
L 747.68023 585.771264 
L 753.587788 585.042301 
L 759.495347 584.53976 
L 765.284755 584.268699 
L 771.192314 584.217311 
L 774.855 584.298366 
L 774.855 584.298366 
" clip-path="url(#pa529333881)" style="fill: none; stroke: #8056b3; stroke-width: 1.5; stroke-linecap: square"/>
   </g>
   <g id="patch_18">
    <path d="M 65.947944 652.48 
L 65.947944 525.321 
" style="fill: none; stroke: #000000; stroke-width: 0.8; stroke-linejoin: miter; stroke-linecap: square"/>
   </g>
   <g id="patch_19">
    <path d="M 774.855 652.48 
L 774.855 525.321 
" style="fill: none; stroke: #000000; stroke-width: 0.8; stroke-linejoin: miter; stroke-linecap: square"/>
   </g>
   <g id="patch_20">
    <path d="M 65.947944 652.48 
L 774.855 652.48 
" style="fill: none; stroke: #000000; stroke-width: 0.8; stroke-linejoin: miter; stroke-linecap: square"/>
   </g>
   <g id="patch_21">
    <path d="M 65.947944 525.321 
L 774.855 525.321 
" style="fill: none; stroke: #000000; stroke-width: 0.8; stroke-linejoin: miter; stroke-linecap: square"/>
   </g>
  </g>
  <g id="text_31">
   <!-- Navion | Chuyển động dọc -->
   <g transform="translate(303.579219 26.44) scale(0.14 -0.14)">
    <defs>
     <path id="DejaVuSans-4e" d="M 628 4666 
L 1478 4666 
L 3547 763 
L 3547 4666 
L 4159 4666 
L 4159 0 
L 3309 0 
L 1241 3903 
L 1241 0 
L 628 0 
L 628 4666 
z
" transform="scale(0.015625)"/>
     <path id="DejaVuSans-76" d="M 191 3500 
L 800 3500 
L 1894 563 
L 2988 3500 
L 3597 3500 
L 2284 0 
L 1503 0 
L 191 3500 
z
" transform="scale(0.015625)"/>
     <path id="DejaVuSans-6f" d="M 1959 3097 
Q 1497 3097 1228 2736 
Q 959 2375 959 1747 
Q 959 1119 1226 758 
Q 1494 397 1959 397 
Q 2419 397 2687 759 
Q 2956 1122 2956 1747 
Q 2956 2369 2687 2733 
Q 2419 3097 1959 3097 
z
M 1959 3584 
Q 2709 3584 3137 3096 
Q 3566 2609 3566 1747 
Q 3566 888 3137 398 
Q 2709 -91 1959 -91 
Q 1206 -91 779 398 
Q 353 888 353 1747 
Q 353 2609 779 3096 
Q 1206 3584 1959 3584 
z
" transform="scale(0.015625)"/>
     <path id="DejaVuSans-7c" d="M 1344 4891 
L 1344 -1509 
L 813 -1509 
L 813 4891 
L 1344 4891 
z
" transform="scale(0.015625)"/>
     <path id="DejaVuSans-43" d="M 4122 4306 
L 4122 3641 
Q 3803 3938 3442 4084 
Q 3081 4231 2675 4231 
Q 1875 4231 1450 3742 
Q 1025 3253 1025 2328 
Q 1025 1406 1450 917 
Q 1875 428 2675 428 
Q 3081 428 3442 575 
Q 3803 722 4122 1019 
L 4122 359 
Q 3791 134 3420 21 
Q 3050 -91 2638 -91 
Q 1578 -91 968 557 
Q 359 1206 359 2328 
Q 359 3453 968 4101 
Q 1578 4750 2638 4750 
Q 3056 4750 3426 4639 
Q 3797 4528 4122 4306 
z
" transform="scale(0.015625)"/>
     <path id="DejaVuSans-75" d="M 544 1381 
L 544 3500 
L 1119 3500 
L 1119 1403 
Q 1119 906 1312 657 
Q 1506 409 1894 409 
Q 2359 409 2629 706 
Q 2900 1003 2900 1516 
L 2900 3500 
L 3475 3500 
L 3475 0 
L 2900 0 
L 2900 538 
Q 2691 219 2414 64 
Q 2138 -91 1772 -91 
Q 1169 -91 856 284 
Q 544 659 544 1381 
z
M 1991 3584 
L 1991 3584 
z
" transform="scale(0.015625)"/>
     <path id="DejaVuSans-79" d="M 2059 -325 
Q 1816 -950 1584 -1140 
Q 1353 -1331 966 -1331 
L 506 -1331 
L 506 -850 
L 844 -850 
Q 1081 -850 1212 -737 
Q 1344 -625 1503 -206 
L 1606 56 
L 191 3500 
L 800 3500 
L 1894 763 
L 2988 3500 
L 3597 3500 
L 2059 -325 
z
" transform="scale(0.015625)"/>
     <path id="DejaVuSans-1ec3" d="M 3597 1894 
L 3597 1613 
L 953 1613 
Q 991 1019 1311 708 
Q 1631 397 2203 397 
Q 2534 397 2845 478 
Q 3156 559 3463 722 
L 3463 178 
Q 3153 47 2828 -22 
Q 2503 -91 2169 -91 
Q 1331 -91 842 396 
Q 353 884 353 1716 
Q 353 2575 817 3079 
Q 1281 3584 2069 3584 
Q 2775 3584 3186 3129 
Q 3597 2675 3597 1894 
z
M 3022 2063 
Q 3016 2534 2758 2815 
Q 2500 3097 2075 3097 
Q 1594 3097 1305 2825 
Q 1016 2553 972 2059 
L 3022 2063 
z
M 2468 5345 
Q 2818 5504 3146 5504 
Q 3471 5504 3669 5371 
Q 3868 5239 3868 5029 
Q 3868 4839 3593 4636 
L 3455 4536 
Q 3346 4454 3334 4426 
Q 3312 4376 3312 4276 
L 2940 4276 
L 2940 4314 
Q 2940 4439 2987 4523 
Q 3034 4608 3193 4723 
L 3334 4829 
Q 3477 4936 3477 5061 
Q 3477 5126 3380 5182 
Q 3284 5239 3062 5239 
Q 2780 5239 2468 5076 
L 2468 5345 
z
M 1738 4775 
L 2326 4775 
L 2985 3944 
L 2551 3944 
L 2032 4500 
L 1513 3944 
L 1079 3944 
L 1738 4775 
z
" transform="scale(0.015625)"/>
     <path id="DejaVuSans-111" d="M 2906 2969 
L 2906 4013 
L 1888 4013 
L 1888 4403 
L 2906 4403 
L 2906 4863 
L 3481 4863 
L 3481 4403 
L 3963 4403 
L 3963 4013 
L 3481 4013 
L 3481 0 
L 2906 0 
L 2906 525 
Q 2725 213 2448 61 
Q 2172 -91 1784 -91 
Q 1150 -91 751 415 
Q 353 922 353 1747 
Q 353 2572 751 3078 
Q 1150 3584 1784 3584 
Q 2172 3584 2448 3432 
Q 2725 3281 2906 2969 
z
M 947 1747 
Q 947 1113 1208 752 
Q 1469 391 1925 391 
Q 2381 391 2643 752 
Q 2906 1113 2906 1747 
Q 2906 2381 2643 2742 
Q 2381 3103 1925 3103 
Q 1469 3103 1208 2742 
Q 947 2381 947 1747 
z
" transform="scale(0.015625)"/>
     <path id="DejaVuSans-1ed9" d="M 1666 -441 
L 2241 -441 
L 2241 -1172 
L 1666 -1172 
L 1666 -441 
z
M 1959 3097 
Q 1497 3097 1228 2736 
Q 959 2375 959 1747 
Q 959 1119 1226 758 
Q 1494 397 1959 397 
Q 2419 397 2687 759 
Q 2956 1122 2956 1747 
Q 2956 2369 2687 2733 
Q 2419 3097 1959 3097 
z
M 1959 3584 
Q 2709 3584 3137 3096 
Q 3566 2609 3566 1747 
Q 3566 888 3137 398 
Q 2709 -91 1959 -91 
Q 1206 -91 779 398 
Q 353 888 353 1747 
Q 353 2609 779 3096 
Q 1206 3584 1959 3584 
z
M 1666 -441 
L 2241 -441 
L 2241 -1172 
L 1666 -1172 
L 1666 -441 
z
M 1729 5119 
L 2191 5119 
L 2957 3944 
L 2523 3944 
L 1960 4709 
L 1398 3944 
L 963 3944 
L 1729 5119 
z
" transform="scale(0.015625)"/>
     <path id="DejaVuSans-1ecd" d="M 1959 3097 
Q 1497 3097 1228 2736 
Q 959 2375 959 1747 
Q 959 1119 1226 758 
Q 1494 397 1959 397 
Q 2419 397 2687 759 
Q 2956 1122 2956 1747 
Q 2956 2369 2687 2733 
Q 2419 3097 1959 3097 
z
M 1959 3584 
Q 2709 3584 3137 3096 
Q 3566 2609 3566 1747 
Q 3566 888 3137 398 
Q 2709 -91 1959 -91 
Q 1206 -91 779 398 
Q 353 888 353 1747 
Q 353 2609 779 3096 
Q 1206 3584 1959 3584 
z
M 1666 -441 
L 2241 -441 
L 2241 -1172 
L 1666 -1172 
L 1666 -441 
z
" transform="scale(0.015625)"/>
     <path id="DejaVuSans-63" d="M 3122 3366 
L 3122 2828 
Q 2878 2963 2633 3030 
Q 2388 3097 2138 3097 
Q 1578 3097 1268 2742 
Q 959 2388 959 1747 
Q 959 1106 1268 751 
Q 1578 397 2138 397 
Q 2388 397 2633 464 
Q 2878 531 3122 666 
L 3122 134 
Q 2881 22 2623 -34 
Q 2366 -91 2075 -91 
Q 1284 -91 818 406 
Q 353 903 353 1747 
Q 353 2603 823 3093 
Q 1294 3584 2113 3584 
Q 2378 3584 2631 3529 
Q 2884 3475 3122 3366 
z
" transform="scale(0.015625)"/>
    </defs>
    <use xlink:href="#DejaVuSans-4e"/>
    <use xlink:href="#DejaVuSans-61" transform="translate(74.804688 0)"/>
    <use xlink:href="#DejaVuSans-76" transform="translate(136.083984 0)"/>
    <use xlink:href="#DejaVuSans-69" transform="translate(195.263672 0)"/>
    <use xlink:href="#DejaVuSans-6f" transform="translate(223.046875 0)"/>
    <use xlink:href="#DejaVuSans-6e" transform="translate(284.228516 0)"/>
    <use xlink:href="#DejaVuSans-20" transform="translate(347.607422 0)"/>
    <use xlink:href="#DejaVuSans-7c" transform="translate(379.394531 0)"/>
    <use xlink:href="#DejaVuSans-20" transform="translate(413.085938 0)"/>
    <use xlink:href="#DejaVuSans-43" transform="translate(444.873047 0)"/>
    <use xlink:href="#DejaVuSans-68" transform="translate(514.697266 0)"/>
    <use xlink:href="#DejaVuSans-75" transform="translate(578.076172 0)"/>
    <use xlink:href="#DejaVuSans-79" transform="translate(641.455078 0)"/>
    <use xlink:href="#DejaVuSans-1ec3" transform="translate(700.634766 0)"/>
    <use xlink:href="#DejaVuSans-6e" transform="translate(762.158203 0)"/>
    <use xlink:href="#DejaVuSans-20" transform="translate(825.537109 0)"/>
    <use xlink:href="#DejaVuSans-111" transform="translate(857.324219 0)"/>
    <use xlink:href="#DejaVuSans-1ed9" transform="translate(920.800781 0)"/>
    <use xlink:href="#DejaVuSans-6e" transform="translate(981.982422 0)"/>
    <use xlink:href="#DejaVuSans-67" transform="translate(1045.361328 0)"/>
    <use xlink:href="#DejaVuSans-20" transform="translate(1108.837891 0)"/>
    <use xlink:href="#DejaVuSans-64" transform="translate(1140.625 0)"/>
    <use xlink:href="#DejaVuSans-1ecd" transform="translate(1204.101562 0)"/>
    <use xlink:href="#DejaVuSans-63" transform="translate(1265.283203 0)"/>
   </g>
   <!-- Đáp ứng tự do 0–60 s · RK4 · Δt = 0.01 s -->
   <g transform="translate(254.426094 43.178312) scale(0.14 -0.14)">
    <defs>
     <path id="DejaVuSans-110" d="M 659 4666 
L 1959 4666 
Q 3313 4666 3947 4102 
Q 4581 3538 4581 2338 
Q 4581 1131 3945 565 
Q 3309 0 1959 0 
L 659 0 
L 659 2188 
L 31 2188 
L 31 2638 
L 659 2638 
L 659 4666 
z
M 1294 4147 
L 1294 2638 
L 2344 2638 
L 2344 2188 
L 1294 2188 
L 1294 519 
L 2053 519 
Q 3019 519 3467 956 
Q 3916 1394 3916 2338 
Q 3916 3275 3467 3711 
Q 3019 4147 2053 4147 
L 1294 4147 
z
" transform="scale(0.015625)"/>
     <path id="DejaVuSans-e1" d="M 2194 1759 
Q 1497 1759 1228 1600 
Q 959 1441 959 1056 
Q 959 750 1161 570 
Q 1363 391 1709 391 
Q 2188 391 2477 730 
Q 2766 1069 2766 1631 
L 2766 1759 
L 2194 1759 
z
M 3341 1997 
L 3341 0 
L 2766 0 
L 2766 531 
Q 2569 213 2275 61 
Q 1981 -91 1556 -91 
Q 1019 -91 701 211 
Q 384 513 384 1019 
Q 384 1609 779 1909 
Q 1175 2209 1959 2209 
L 2766 2209 
L 2766 2266 
Q 2766 2663 2505 2880 
Q 2244 3097 1772 3097 
Q 1472 3097 1187 3025 
Q 903 2953 641 2809 
L 641 3341 
Q 956 3463 1253 3523 
Q 1550 3584 1831 3584 
Q 2591 3584 2966 3190 
Q 3341 2797 3341 1997 
z
M 2290 5119 
L 2912 5119 
L 1894 3944 
L 1415 3944 
L 2290 5119 
z
" transform="scale(0.015625)"/>
     <path id="DejaVuSans-70" d="M 1159 525 
L 1159 -1331 
L 581 -1331 
L 581 3500 
L 1159 3500 
L 1159 2969 
Q 1341 3281 1617 3432 
Q 1894 3584 2278 3584 
Q 2916 3584 3314 3078 
Q 3713 2572 3713 1747 
Q 3713 922 3314 415 
Q 2916 -91 2278 -91 
Q 1894 -91 1617 61 
Q 1341 213 1159 525 
z
M 3116 1747 
Q 3116 2381 2855 2742 
Q 2594 3103 2138 3103 
Q 1681 3103 1420 2742 
Q 1159 2381 1159 1747 
Q 1159 1113 1420 752 
Q 1681 391 2138 391 
Q 2594 391 2855 752 
Q 3116 1113 3116 1747 
z
" transform="scale(0.015625)"/>
     <path id="DejaVuSans-1ee9" d="M 2418 5119 
L 3040 5119 
L 2022 3944 
L 1543 3944 
L 2418 5119 
z
M 3094 3136 
L 3094 3508 
Q 3285 3367 3422 3300 
Q 3560 3233 3657 3233 
Q 3800 3233 3872 3319 
Q 3944 3405 3944 3573 
Q 3944 3673 3920 3770 
Q 3897 3867 3850 3964 
L 4266 3964 
Q 4297 3845 4312 3739 
Q 4328 3633 4328 3539 
Q 4328 3158 4192 2978 
Q 4057 2798 3766 2798 
Q 3616 2798 3452 2881 
Q 3288 2964 3094 3136 
z
M 552 1381 
L 552 3500 
L 1127 3500 
L 1127 1403 
Q 1127 906 1320 657 
Q 1514 409 1902 409 
Q 2367 409 2637 706 
Q 2908 1003 2908 1516 
L 2908 3500 
L 3483 3500 
L 3483 0 
L 2908 0 
L 2908 538 
Q 2699 219 2422 64 
Q 2146 -91 1780 -91 
Q 1177 -91 864 284 
Q 552 659 552 1381 
z
M 1999 3584 
L 1999 3584 
z
" transform="scale(0.015625)"/>
     <path id="DejaVuSans-1ef1" d="M 3094 3136 
L 3094 3508 
Q 3285 3367 3422 3300 
Q 3560 3233 3657 3233 
Q 3800 3233 3872 3319 
Q 3944 3405 3944 3573 
Q 3944 3673 3920 3770 
Q 3897 3867 3850 3964 
L 4266 3964 
Q 4297 3845 4312 3739 
Q 4328 3633 4328 3539 
Q 4328 3158 4192 2978 
Q 4057 2798 3766 2798 
Q 3616 2798 3452 2881 
Q 3288 2964 3094 3136 
z
M 552 1381 
L 552 3500 
L 1127 3500 
L 1127 1403 
Q 1127 906 1320 657 
Q 1514 409 1902 409 
Q 2367 409 2637 706 
Q 2908 1003 2908 1516 
L 2908 3500 
L 3483 3500 
L 3483 0 
L 2908 0 
L 2908 538 
Q 2699 219 2422 64 
Q 2146 -91 1780 -91 
Q 1177 -91 864 284 
Q 552 659 552 1381 
z
M 1999 3584 
L 1999 3584 
z
M 1690 -441 
L 2265 -441 
L 2265 -1172 
L 1690 -1172 
L 1690 -441 
z
" transform="scale(0.015625)"/>
     <path id="DejaVuSans-2013" d="M 313 1978 
L 2888 1978 
L 2888 1528 
L 313 1528 
L 313 1978 
z
" transform="scale(0.015625)"/>
     <path id="DejaVuSans-b7" d="M 684 2619 
L 1344 2619 
L 1344 1825 
L 684 1825 
L 684 2619 
z
" transform="scale(0.015625)"/>
     <path id="DejaVuSans-52" d="M 2841 2188 
Q 3044 2119 3236 1894 
Q 3428 1669 3622 1275 
L 4263 0 
L 3584 0 
L 2988 1197 
Q 2756 1666 2539 1819 
Q 2322 1972 1947 1972 
L 1259 1972 
L 1259 0 
L 628 0 
L 628 4666 
L 2053 4666 
Q 2853 4666 3247 4331 
Q 3641 3997 3641 3322 
Q 3641 2881 3436 2590 
Q 3231 2300 2841 2188 
z
M 1259 4147 
L 1259 2491 
L 2053 2491 
Q 2509 2491 2742 2702 
Q 2975 2913 2975 3322 
Q 2975 3731 2742 3939 
Q 2509 4147 2053 4147 
L 1259 4147 
z
" transform="scale(0.015625)"/>
     <path id="DejaVuSans-4b" d="M 628 4666 
L 1259 4666 
L 1259 2694 
L 3353 4666 
L 4166 4666 
L 1850 2491 
L 4331 0 
L 3500 0 
L 1259 2247 
L 1259 0 
L 628 0 
L 628 4666 
z
" transform="scale(0.015625)"/>
     <path id="DejaVuSans-3d" d="M 678 2906 
L 4684 2906 
L 4684 2381 
L 678 2381 
L 678 2906 
z
M 678 1631 
L 4684 1631 
L 4684 1100 
L 678 1100 
L 678 1631 
z
" transform="scale(0.015625)"/>
    </defs>
    <use xlink:href="#DejaVuSans-110"/>
    <use xlink:href="#DejaVuSans-e1" transform="translate(77.490234 0)"/>
    <use xlink:href="#DejaVuSans-70" transform="translate(138.769531 0)"/>
    <use xlink:href="#DejaVuSans-20" transform="translate(202.246094 0)"/>
    <use xlink:href="#DejaVuSans-1ee9" transform="translate(234.033203 0)"/>
    <use xlink:href="#DejaVuSans-6e" transform="translate(297.412109 0)"/>
    <use xlink:href="#DejaVuSans-67" transform="translate(360.791016 0)"/>
    <use xlink:href="#DejaVuSans-20" transform="translate(424.267578 0)"/>
    <use xlink:href="#DejaVuSans-74" transform="translate(456.054688 0)"/>
    <use xlink:href="#DejaVuSans-1ef1" transform="translate(495.263672 0)"/>
    <use xlink:href="#DejaVuSans-20" transform="translate(558.642578 0)"/>
    <use xlink:href="#DejaVuSans-64" transform="translate(590.429688 0)"/>
    <use xlink:href="#DejaVuSans-6f" transform="translate(653.90625 0)"/>
    <use xlink:href="#DejaVuSans-20" transform="translate(715.087891 0)"/>
    <use xlink:href="#DejaVuSans-30" transform="translate(746.875 0)"/>
    <use xlink:href="#DejaVuSans-2013" transform="translate(810.498047 0)"/>
    <use xlink:href="#DejaVuSans-36" transform="translate(860.498047 0)"/>
    <use xlink:href="#DejaVuSans-30" transform="translate(924.121094 0)"/>
    <use xlink:href="#DejaVuSans-20" transform="translate(987.744141 0)"/>
    <use xlink:href="#DejaVuSans-73" transform="translate(1019.53125 0)"/>
    <use xlink:href="#DejaVuSans-20" transform="translate(1071.630859 0)"/>
    <use xlink:href="#DejaVuSans-b7" transform="translate(1103.417969 0)"/>
    <use xlink:href="#DejaVuSans-20" transform="translate(1135.205078 0)"/>
    <use xlink:href="#DejaVuSans-52" transform="translate(1166.992188 0)"/>
    <use xlink:href="#DejaVuSans-4b" transform="translate(1236.474609 0)"/>
    <use xlink:href="#DejaVuSans-34" transform="translate(1302.050781 0)"/>
    <use xlink:href="#DejaVuSans-20" transform="translate(1365.673828 0)"/>
    <use xlink:href="#DejaVuSans-b7" transform="translate(1397.460938 0)"/>
    <use xlink:href="#DejaVuSans-20" transform="translate(1429.248047 0)"/>
    <use xlink:href="#DejaVuSans-394" transform="translate(1461.035156 0)"/>
    <use xlink:href="#DejaVuSans-74" transform="translate(1529.443359 0)"/>
    <use xlink:href="#DejaVuSans-20" transform="translate(1568.652344 0)"/>
    <use xlink:href="#DejaVuSans-3d" transform="translate(1600.439453 0)"/>
    <use xlink:href="#DejaVuSans-20" transform="translate(1684.228516 0)"/>
    <use xlink:href="#DejaVuSans-30" transform="translate(1716.015625 0)"/>
    <use xlink:href="#DejaVuSans-2e" transform="translate(1779.638672 0)"/>
    <use xlink:href="#DejaVuSans-30" transform="translate(1811.425781 0)"/>
    <use xlink:href="#DejaVuSans-31" transform="translate(1875.048828 0)"/>
    <use xlink:href="#DejaVuSans-20" transform="translate(1938.671875 0)"/>
    <use xlink:href="#DejaVuSans-73" transform="translate(1970.458984 0)"/>
   </g>
  </g>
  <g id="text_32">
   <!-- Hình học theo tài liệu; hệ số hiệu dụng hiệu chỉnh bằng dữ liệu Navion. -->
   <g style="fill: #555555" transform="translate(235.925156 707.04) scale(0.09 -0.09)">
    <defs>
     <path id="DejaVuSans-48" d="M 628 4666 
L 1259 4666 
L 1259 2753 
L 3553 2753 
L 3553 4666 
L 4184 4666 
L 4184 0 
L 3553 0 
L 3553 2222 
L 1259 2222 
L 1259 0 
L 628 0 
L 628 4666 
z
" transform="scale(0.015625)"/>
     <path id="DejaVuSans-ec" d="M 435 5119 
L 1316 3950 
L 838 3950 
L -181 5119 
L 435 5119 
z
M 603 3500 
L 1178 3500 
L 1178 0 
L 603 0 
L 603 3500 
z
M 891 3584 
L 891 3584 
z
" transform="scale(0.015625)"/>
     <path id="DejaVuSans-65" d="M 3597 1894 
L 3597 1613 
L 953 1613 
Q 991 1019 1311 708 
Q 1631 397 2203 397 
Q 2534 397 2845 478 
Q 3156 559 3463 722 
L 3463 178 
Q 3153 47 2828 -22 
Q 2503 -91 2169 -91 
Q 1331 -91 842 396 
Q 353 884 353 1716 
Q 353 2575 817 3079 
Q 1281 3584 2069 3584 
Q 2775 3584 3186 3129 
Q 3597 2675 3597 1894 
z
M 3022 2063 
Q 3016 2534 2758 2815 
Q 2500 3097 2075 3097 
Q 1594 3097 1305 2825 
Q 1016 2553 972 2059 
L 3022 2063 
z
" transform="scale(0.015625)"/>
     <path id="DejaVuSans-e0" d="M 2194 1759 
Q 1497 1759 1228 1600 
Q 959 1441 959 1056 
Q 959 750 1161 570 
Q 1363 391 1709 391 
Q 2188 391 2477 730 
Q 2766 1069 2766 1631 
L 2766 1759 
L 2194 1759 
z
M 3341 1997 
L 3341 0 
L 2766 0 
L 2766 531 
Q 2569 213 2275 61 
Q 1981 -91 1556 -91 
Q 1019 -91 701 211 
Q 384 513 384 1019 
Q 384 1609 779 1909 
Q 1175 2209 1959 2209 
L 2766 2209 
L 2766 2266 
Q 2766 2663 2505 2880 
Q 2244 3097 1772 3097 
Q 1472 3097 1187 3025 
Q 903 2953 641 2809 
L 641 3341 
Q 956 3463 1253 3523 
Q 1550 3584 1831 3584 
Q 2591 3584 2966 3190 
Q 3341 2797 3341 1997 
z
M 1403 5119 
L 2284 3950 
L 1806 3950 
L 787 5119 
L 1403 5119 
z
" transform="scale(0.015625)"/>
     <path id="DejaVuSans-6c" d="M 603 4863 
L 1178 4863 
L 1178 0 
L 603 0 
L 603 4863 
z
" transform="scale(0.015625)"/>
     <path id="DejaVuSans-1ec7" d="M 1738 -441 
L 2313 -441 
L 2313 -1172 
L 1738 -1172 
L 1738 -441 
z
M 3597 1894 
L 3597 1613 
L 953 1613 
Q 991 1019 1311 708 
Q 1631 397 2203 397 
Q 2534 397 2845 478 
Q 3156 559 3463 722 
L 3463 178 
Q 3153 47 2828 -22 
Q 2503 -91 2169 -91 
Q 1331 -91 842 396 
Q 353 884 353 1716 
Q 353 2575 817 3079 
Q 1281 3584 2069 3584 
Q 2775 3584 3186 3129 
Q 3597 2675 3597 1894 
z
M 3022 2063 
Q 3016 2534 2758 2815 
Q 2500 3097 2075 3097 
Q 1594 3097 1305 2825 
Q 1016 2553 972 2059 
L 3022 2063 
z
M 1738 -441 
L 2313 -441 
L 2313 -1172 
L 1738 -1172 
L 1738 -441 
z
M 1801 5119 
L 2263 5119 
L 3029 3944 
L 2595 3944 
L 2032 4709 
L 1470 3944 
L 1035 3944 
L 1801 5119 
z
" transform="scale(0.015625)"/>
     <path id="DejaVuSans-3b" d="M 750 3309 
L 1409 3309 
L 1409 2516 
L 750 2516 
L 750 3309 
z
M 750 794 
L 1409 794 
L 1409 256 
L 897 -744 
L 494 -744 
L 750 256 
L 750 794 
z
" transform="scale(0.015625)"/>
     <path id="DejaVuSans-1ed1" d="M 1658 4775 
L 2246 4775 
L 2905 3944 
L 2471 3944 
L 1952 4500 
L 1433 3944 
L 999 3944 
L 1658 4775 
z
M 3268 5409 
L 3846 5409 
L 3134 4584 
L 2655 4584 
L 3268 5409 
z
M 1959 3097 
Q 1497 3097 1228 2736 
Q 959 2375 959 1747 
Q 959 1119 1226 758 
Q 1494 397 1959 397 
Q 2419 397 2687 759 
Q 2956 1122 2956 1747 
Q 2956 2369 2687 2733 
Q 2419 3097 1959 3097 
z
M 1959 3584 
Q 2709 3584 3137 3096 
Q 3566 2609 3566 1747 
Q 3566 888 3137 398 
Q 2709 -91 1959 -91 
Q 1206 -91 779 398 
Q 353 888 353 1747 
Q 353 2609 779 3096 
Q 1206 3584 1959 3584 
z
" transform="scale(0.015625)"/>
     <path id="DejaVuSans-1ee5" d="M 544 1381 
L 544 3500 
L 1119 3500 
L 1119 1403 
Q 1119 906 1312 657 
Q 1506 409 1894 409 
Q 2359 409 2629 706 
Q 2900 1003 2900 1516 
L 2900 3500 
L 3475 3500 
L 3475 0 
L 2900 0 
L 2900 538 
Q 2691 219 2414 64 
Q 2138 -91 1772 -91 
Q 1169 -91 856 284 
Q 544 659 544 1381 
z
M 1991 3584 
L 1991 3584 
z
M 1690 -441 
L 2265 -441 
L 2265 -1172 
L 1690 -1172 
L 1690 -441 
z
" transform="scale(0.015625)"/>
     <path id="DejaVuSans-1ec9" d="M 603 3500 
L 1178 3500 
L 1178 0 
L 603 0 
L 603 3500 
z
M 891 3584 
L 891 3584 
z
M 212 5025 
Q 562 5184 890 5184 
Q 1215 5184 1413 5051 
Q 1612 4919 1612 4709 
Q 1612 4519 1337 4316 
L 1199 4216 
Q 1090 4134 1078 4106 
Q 1056 4056 1056 3956 
L 684 3956 
L 684 3994 
Q 684 4119 731 4203 
Q 778 4288 937 4403 
L 1078 4509 
Q 1221 4616 1221 4741 
Q 1221 4806 1124 4862 
Q 1028 4919 806 4919 
Q 524 4919 212 4756 
L 212 5025 
z
" transform="scale(0.015625)"/>
     <path id="DejaVuSans-62" d="M 3116 1747 
Q 3116 2381 2855 2742 
Q 2594 3103 2138 3103 
Q 1681 3103 1420 2742 
Q 1159 2381 1159 1747 
Q 1159 1113 1420 752 
Q 1681 391 2138 391 
Q 2594 391 2855 752 
Q 3116 1113 3116 1747 
z
M 1159 2969 
Q 1341 3281 1617 3432 
Q 1894 3584 2278 3584 
Q 2916 3584 3314 3078 
Q 3713 2572 3713 1747 
Q 3713 922 3314 415 
Q 2916 -91 2278 -91 
Q 1894 -91 1617 61 
Q 1341 213 1159 525 
L 1159 0 
L 581 0 
L 581 4863 
L 1159 4863 
L 1159 2969 
z
" transform="scale(0.015625)"/>
     <path id="DejaVuSans-1eb1" d="M 862 4711 
L 1231 4711 
Q 1271 4542 1426 4453 
Q 1581 4364 1840 4364 
Q 2096 4364 2247 4450 
Q 2399 4536 2449 4711 
L 2818 4711 
Q 2787 4339 2537 4147 
Q 2287 3955 1840 3955 
Q 1390 3955 1141 4145 
Q 893 4336 862 4711 
z
M 1518 5601 
L 2130 4776 
L 1652 4776 
L 934 5601 
L 1518 5601 
z
M 2194 1759 
Q 1497 1759 1228 1600 
Q 959 1441 959 1056 
Q 959 750 1161 570 
Q 1363 391 1709 391 
Q 2188 391 2477 730 
Q 2766 1069 2766 1631 
L 2766 1759 
L 2194 1759 
z
M 3341 1997 
L 3341 0 
L 2766 0 
L 2766 531 
Q 2569 213 2275 61 
Q 1981 -91 1556 -91 
Q 1019 -91 701 211 
Q 384 513 384 1019 
Q 384 1609 779 1909 
Q 1175 2209 1959 2209 
L 2766 2209 
L 2766 2266 
Q 2766 2663 2505 2880 
Q 2244 3097 1772 3097 
Q 1472 3097 1187 3025 
Q 903 2953 641 2809 
L 641 3341 
Q 956 3463 1253 3523 
Q 1550 3584 1831 3584 
Q 2591 3584 2966 3190 
Q 3341 2797 3341 1997 
z
" transform="scale(0.015625)"/>
     <path id="DejaVuSans-1eef" d="M 1988 4281 
L 1809 4453 
Q 1741 4516 1689 4545 
Q 1638 4575 1597 4575 
Q 1478 4575 1422 4461 
Q 1366 4347 1359 4091 
L 969 4091 
Q 975 4513 1134 4742 
Q 1294 4972 1578 4972 
Q 1697 4972 1797 4928 
Q 1897 4884 2013 4781 
L 2191 4609 
Q 2259 4547 2311 4517 
Q 2363 4488 2403 4488 
Q 2522 4488 2578 4602 
Q 2634 4716 2641 4972 
L 3031 4972 
Q 3025 4550 2865 4320 
Q 2706 4091 2422 4091 
Q 2303 4091 2203 4134 
Q 2103 4178 1988 4281 
z
M 3094 3136 
L 3094 3508 
Q 3285 3367 3422 3300 
Q 3560 3233 3657 3233 
Q 3800 3233 3872 3319 
Q 3944 3405 3944 3573 
Q 3944 3673 3920 3770 
Q 3897 3867 3850 3964 
L 4266 3964 
Q 4297 3845 4312 3739 
Q 4328 3633 4328 3539 
Q 4328 3158 4192 2978 
Q 4057 2798 3766 2798 
Q 3616 2798 3452 2881 
Q 3288 2964 3094 3136 
z
M 552 1381 
L 552 3500 
L 1127 3500 
L 1127 1403 
Q 1127 906 1320 657 
Q 1514 409 1902 409 
Q 2367 409 2637 706 
Q 2908 1003 2908 1516 
L 2908 3500 
L 3483 3500 
L 3483 0 
L 2908 0 
L 2908 538 
Q 2699 219 2422 64 
Q 2146 -91 1780 -91 
Q 1177 -91 864 284 
Q 552 659 552 1381 
z
M 1999 3584 
L 1999 3584 
z
" transform="scale(0.015625)"/>
    </defs>
    <use xlink:href="#DejaVuSans-48"/>
    <use xlink:href="#DejaVuSans-ec" transform="translate(75.195312 0)"/>
    <use xlink:href="#DejaVuSans-6e" transform="translate(102.978516 0)"/>
    <use xlink:href="#DejaVuSans-68" transform="translate(166.357422 0)"/>
    <use xlink:href="#DejaVuSans-20" transform="translate(229.736328 0)"/>
    <use xlink:href="#DejaVuSans-68" transform="translate(261.523438 0)"/>
    <use xlink:href="#DejaVuSans-1ecd" transform="translate(324.902344 0)"/>
    <use xlink:href="#DejaVuSans-63" transform="translate(386.083984 0)"/>
    <use xlink:href="#DejaVuSans-20" transform="translate(441.064453 0)"/>
    <use xlink:href="#DejaVuSans-74" transform="translate(472.851562 0)"/>
    <use xlink:href="#DejaVuSans-68" transform="translate(512.060547 0)"/>
    <use xlink:href="#DejaVuSans-65" transform="translate(575.439453 0)"/>
    <use xlink:href="#DejaVuSans-6f" transform="translate(636.962891 0)"/>
    <use xlink:href="#DejaVuSans-20" transform="translate(698.144531 0)"/>
    <use xlink:href="#DejaVuSans-74" transform="translate(729.931641 0)"/>
    <use xlink:href="#DejaVuSans-e0" transform="translate(769.140625 0)"/>
    <use xlink:href="#DejaVuSans-69" transform="translate(830.419922 0)"/>
    <use xlink:href="#DejaVuSans-20" transform="translate(858.203125 0)"/>
    <use xlink:href="#DejaVuSans-6c" transform="translate(889.990234 0)"/>
    <use xlink:href="#DejaVuSans-69" transform="translate(917.773438 0)"/>
    <use xlink:href="#DejaVuSans-1ec7" transform="translate(945.556641 0)"/>
    <use xlink:href="#DejaVuSans-75" transform="translate(1007.080078 0)"/>
    <use xlink:href="#DejaVuSans-3b" transform="translate(1070.458984 0)"/>
    <use xlink:href="#DejaVuSans-20" transform="translate(1104.150391 0)"/>
    <use xlink:href="#DejaVuSans-68" transform="translate(1135.9375 0)"/>
    <use xlink:href="#DejaVuSans-1ec7" transform="translate(1199.316406 0)"/>
    <use xlink:href="#DejaVuSans-20" transform="translate(1260.839844 0)"/>
    <use xlink:href="#DejaVuSans-73" transform="translate(1292.626953 0)"/>
    <use xlink:href="#DejaVuSans-1ed1" transform="translate(1344.726562 0)"/>
    <use xlink:href="#DejaVuSans-20" transform="translate(1405.908203 0)"/>
    <use xlink:href="#DejaVuSans-68" transform="translate(1437.695312 0)"/>
    <use xlink:href="#DejaVuSans-69" transform="translate(1501.074219 0)"/>
    <use xlink:href="#DejaVuSans-1ec7" transform="translate(1528.857422 0)"/>
    <use xlink:href="#DejaVuSans-75" transform="translate(1590.380859 0)"/>
    <use xlink:href="#DejaVuSans-20" transform="translate(1653.759766 0)"/>
    <use xlink:href="#DejaVuSans-64" transform="translate(1685.546875 0)"/>
    <use xlink:href="#DejaVuSans-1ee5" transform="translate(1749.023438 0)"/>
    <use xlink:href="#DejaVuSans-6e" transform="translate(1812.402344 0)"/>
    <use xlink:href="#DejaVuSans-67" transform="translate(1875.78125 0)"/>
    <use xlink:href="#DejaVuSans-20" transform="translate(1939.257812 0)"/>
    <use xlink:href="#DejaVuSans-68" transform="translate(1971.044922 0)"/>
    <use xlink:href="#DejaVuSans-69" transform="translate(2034.423828 0)"/>
    <use xlink:href="#DejaVuSans-1ec7" transform="translate(2062.207031 0)"/>
    <use xlink:href="#DejaVuSans-75" transform="translate(2123.730469 0)"/>
    <use xlink:href="#DejaVuSans-20" transform="translate(2187.109375 0)"/>
    <use xlink:href="#DejaVuSans-63" transform="translate(2218.896484 0)"/>
    <use xlink:href="#DejaVuSans-68" transform="translate(2273.876953 0)"/>
    <use xlink:href="#DejaVuSans-1ec9" transform="translate(2337.255859 0)"/>
    <use xlink:href="#DejaVuSans-6e" transform="translate(2365.039062 0)"/>
    <use xlink:href="#DejaVuSans-68" transform="translate(2428.417969 0)"/>
    <use xlink:href="#DejaVuSans-20" transform="translate(2491.796875 0)"/>
    <use xlink:href="#DejaVuSans-62" transform="translate(2523.583984 0)"/>
    <use xlink:href="#DejaVuSans-1eb1" transform="translate(2587.060547 0)"/>
    <use xlink:href="#DejaVuSans-6e" transform="translate(2648.339844 0)"/>
    <use xlink:href="#DejaVuSans-67" transform="translate(2711.71875 0)"/>
    <use xlink:href="#DejaVuSans-20" transform="translate(2775.195312 0)"/>
    <use xlink:href="#DejaVuSans-64" transform="translate(2806.982422 0)"/>
    <use xlink:href="#DejaVuSans-1eef" transform="translate(2870.458984 0)"/>
    <use xlink:href="#DejaVuSans-20" transform="translate(2933.837891 0)"/>
    <use xlink:href="#DejaVuSans-6c" transform="translate(2965.625 0)"/>
    <use xlink:href="#DejaVuSans-69" transform="translate(2993.408203 0)"/>
    <use xlink:href="#DejaVuSans-1ec7" transform="translate(3021.191406 0)"/>
    <use xlink:href="#DejaVuSans-75" transform="translate(3082.714844 0)"/>
    <use xlink:href="#DejaVuSans-20" transform="translate(3146.09375 0)"/>
    <use xlink:href="#DejaVuSans-4e" transform="translate(3177.880859 0)"/>
    <use xlink:href="#DejaVuSans-61" transform="translate(3252.685547 0)"/>
    <use xlink:href="#DejaVuSans-76" transform="translate(3313.964844 0)"/>
    <use xlink:href="#DejaVuSans-69" transform="translate(3373.144531 0)"/>
    <use xlink:href="#DejaVuSans-6f" transform="translate(3400.927734 0)"/>
    <use xlink:href="#DejaVuSans-6e" transform="translate(3462.109375 0)"/>
    <use xlink:href="#DejaVuSans-2e" transform="translate(3525.488281 0)"/>
   </g>
  </g>
 </g>
 <defs>
  <clipPath id="p5d36e3f44f">
   <rect x="65.947944" y="100.944" width="708.907056" height="127.159"/>
  </clipPath>
  <clipPath id="p6e13b964ec">
   <rect x="65.947944" y="242.403" width="708.907056" height="127.159"/>
  </clipPath>
  <clipPath id="pc447f7192b">
   <rect x="65.947944" y="383.862" width="708.907056" height="127.159"/>
  </clipPath>
  <clipPath id="pa529333881">
   <rect x="65.947944" y="525.321" width="708.907056" height="127.159"/>
  </clipPath>
 </defs>
</svg>
